STARTFONT 2.3
FONT -FontForge-Butcherman-Book-R-Normal--24-240-72-72-P-130-ISO10646-1
SIZE 24 72 72  2
FONTBOUNDINGBOX 36 47 -2 -16
COMMENT "Generated by fontforge, http://fontforge.sourceforge.net"
COMMENT "Copyright (c) 2011, Typomondo, with Reserved Font Name  "Butcherman"."
STARTPROPERTIES 41
FOUNDRY "FontForge"
FAMILY_NAME "Butcherman"
WEIGHT_NAME "Book"
SLANT "R"
SETWIDTH_NAME "Normal"
ADD_STYLE_NAME ""
PIXEL_SIZE 24
POINT_SIZE 240
RESOLUTION_X 72
RESOLUTION_Y 72
SPACING "P"
AVERAGE_WIDTH 130
CHARSET_REGISTRY "ISO10646"
CHARSET_ENCODING "1"
FONTNAME_REGISTRY ""
CHARSET_COLLECTIONS "ISO8859-2 ISO8859-9 ISO8859-4 ISO10646-1"
BITS_PER_PIXEL 2
FONT_NAME "Butcherman-Regular"
FACE_NAME "Butcherman Regular"
COPYRIGHT "Copyright (c) 2011, Typomondo, with Reserved Font Name  "Butcherman"."
FONT_VERSION "001.004"
FONT_ASCENT 19
FONT_DESCENT 5
UNDERLINE_POSITION -2
UNDERLINE_THICKNESS 2
X_HEIGHT 17
CAP_HEIGHT 17
DEFAULT_CHAR 3
RAW_ASCENT 799
RAW_DESCENT 200
NORM_SPACE 4
RELATIVE_WEIGHT 40
RELATIVE_SETWIDTH 50
SUPERSCRIPT_X 0
SUPERSCRIPT_Y 8
SUPERSCRIPT_SIZE 14
SUBSCRIPT_X 0
SUBSCRIPT_Y 1
SUBSCRIPT_SIZE 14
AVG_LOWERCASE_WIDTH 140
AVG_UPPERCASE_WIDTH 134
ENDPROPERTIES
CHARS 331
STARTCHAR NULL.dup1
ENCODING 0
SWIDTH 161 0
DWIDTH 4 0
BBX 1 1 0 0
BITMAP
00
ENDCHAR
STARTCHAR CR
ENCODING 13
SWIDTH 161 0
DWIDTH 4 0
BBX 1 1 0 0
BITMAP
00
ENDCHAR
STARTCHAR space
ENCODING 32
SWIDTH 161 0
DWIDTH 4 0
BBX 1 1 0 0
BITMAP
00
ENDCHAR
STARTCHAR exclam
ENCODING 33
SWIDTH 350 0
DWIDTH 8 0
BBX 8 29 0 1
BITMAP
0550
7FFD
7FFE
3FFC
1FFC
1FF8
2FF8
2FF8
1FF4
0FF4
0FF0
0BF4
0BF0
07F0
07F0
07F0
07F0
07E0
06A0
0000
0000
0564
3FFD
2FFD
1FFD
1FFD
1FFD
1FFD
1E98
ENDCHAR
STARTCHAR quotedbl
ENCODING 34
SWIDTH 541 0
DWIDTH 13 0
BBX 11 9 1 9
BITMAP
6A46A4
FF8BF8
BF8BF8
7F87F4
7F43F4
3F42F0
3F42F0
2F01E0
1E0190
ENDCHAR
STARTCHAR numbersign
ENCODING 35
SWIDTH 583 0
DWIDTH 14 0
BBX 14 22 0 -3
BITMAP
00090280
001D0380
002C0780
003C0B40
00380F00
0ABAAF90
0FFFFFC0
0FFFFFC0
0FFFFF80
06E9BA40
02C0B400
0380B400
0780F000
5B41E400
BFFFFD00
BFFFFC00
6FEBF800
1D038000
2C074000
380B0000
280B0000
00010000
ENDCHAR
STARTCHAR dollar
ENCODING 36
SWIDTH 534 0
DWIDTH 13 0
BBX 11 31 1 -7
BITMAP
001000
007400
007400
007400
00B400
007400
00B900
0BFFD0
2FFFF4
7FFFFC
BFFFFC
FFFFF8
FFFFF8
FFFFF8
FF8BF8
FFC668
BFFE00
7FFF80
0BFFD0
006FE0
2A4BE0
7FCFE0
2FFFC0
1FFF80
06B900
007000
007000
00B000
00B000
007000
001000
ENDCHAR
STARTCHAR percent
ENCODING 37
SWIDTH 828 0
DWIDTH 20 0
BBX 19 21 0 -2
BITMAP
0000009000
000002D000
1FE003D000
3FF807C000
7FFC078000
3FFC0B8000
3DBC0B4000
3CBC0F0290
3CB81E0BF4
3DB42D1FF8
2FF0780FFC
06D0B80FFC
0000F40FBC
0001F01FBC
0001E02DBC
0001D01FF4
0002C00BE0
0003800040
0007400000
000B400000
0006000000
ENDCHAR
STARTCHAR ampersand
ENCODING 38
SWIDTH 522 0
DWIDTH 13 0
BBX 11 12 1 3
BITMAP
02FD00
02FD00
02FC00
56FC00
FFFFF8
FFFFF4
FFFFF4
FFFFF4
02FD00
02FD00
02FC00
02F800
ENDCHAR
STARTCHAR quotesingle
ENCODING 39
SWIDTH 300 0
DWIDTH 7 0
BBX 5 9 1 9
BITMAP
6A40
BFC0
BF80
7F80
7F80
3F40
3F40
2F40
1E00
ENDCHAR
STARTCHAR parenleft
ENCODING 40
SWIDTH 372 0
DWIDTH 9 0
BBX 8 24 1 -3
BITMAP
0005
006D
02FD
07FD
0FFC
2FFC
7FFC
7FF8
BFF8
BFC0
FF40
FF40
FF40
FF00
FF00
FF00
FF40
BF80
7FC0
2FF0
1FF4
0BF8
03F8
0064
ENDCHAR
STARTCHAR parenright
ENCODING 41
SWIDTH 338 0
DWIDTH 8 0
BBX 7 23 0 -3
BITMAP
7900
7F80
3FF0
3FF8
3FFC
3FFC
3FFC
3FFC
1BFC
02FC
02F8
01F8
01F8
01F8
01F8
02F4
02F4
03F0
07E0
0BD0
7F80
7F00
7D00
ENDCHAR
STARTCHAR asterisk
ENCODING 42
SWIDTH 513 0
DWIDTH 12 0
BBX 12 14 0 5
BITMAP
000180
02C2D0
07D3D0
02EBC0
01FF80
14FF50
7FFFFE
7FFFFD
15BF94
00FF40
00FB80
02F7D0
03E2D0
004000
ENDCHAR
STARTCHAR plus
ENCODING 43
SWIDTH 458 0
DWIDTH 11 0
BBX 9 10 1 4
BITMAP
03A000
03F000
03F000
AFFA80
FFFFC0
FFFF80
ABFA80
03F000
03F000
03F000
ENDCHAR
STARTCHAR comma
ENCODING 44
SWIDTH 361 0
DWIDTH 9 0
BBX 7 13 1 -4
BITMAP
1000
BFF4
BFF4
BFF4
BFF4
FFF4
FFF4
ABF4
00F4
01F0
01F0
02E0
0150
ENDCHAR
STARTCHAR hyphen
ENCODING 45
SWIDTH 478 0
DWIDTH 11 0
BBX 9 5 1 7
BITMAP
695540
BFFFC0
BFFF80
BFFF80
6FBF80
ENDCHAR
STARTCHAR period
ENCODING 46
SWIDTH 374 0
DWIDTH 9 0
BBX 7 8 1 1
BITMAP
0550
BFF8
7FF8
7FF8
7FF8
7FF8
3FF8
3A64
ENDCHAR
STARTCHAR slash
ENCODING 47
SWIDTH 291 0
DWIDTH 7 0
BBX 7 21 0 -2
BITMAP
0028
0038
0078
00F4
00F0
00F0
01E0
02D0
07C0
0B80
0F40
0F00
1E00
2D00
2D00
2C00
3800
7400
B000
E000
A000
ENDCHAR
STARTCHAR zero
ENCODING 48
SWIDTH 528 0
DWIDTH 13 0
BBX 11 20 1 -2
BITMAP
01A900
1FFF40
3FFFD0
BFFFF4
BFFFF4
FFFFF4
BFFFF8
BFFFF4
BF5FF4
BF0FF4
BF0FF4
BF0BF4
7F0FF0
7F0FE0
3F5FD0
3FAFC0
3FFFC0
1BFF40
017D00
001400
ENDCHAR
STARTCHAR one
ENCODING 49
SWIDTH 366 0
DWIDTH 9 0
BBX 8 19 0 -1
BITMAP
0069
06FD
BFFD
BFFD
5BFE
07FE
07FD
07FD
03FD
03FC
03FC
02FC
02F8
02F8
02FC
01F8
01F8
0168
0004
ENDCHAR
STARTCHAR two
ENCODING 50
SWIDTH 575 0
DWIDTH 14 0
BBX 13 21 1 -3
BITMAP
02A90000
1FFF8000
3FFFF000
BFFFF400
BFFFF800
BFFFFC00
BFFFFC00
BFFFF800
BF9FF800
7F4BF400
6A2FF400
002FF000
002FD000
007F8000
01FF8140
17FFFF40
BFFFFF00
BFFFBF00
BFB96E00
69101800
00000400
ENDCHAR
STARTCHAR three
ENCODING 51
SWIDTH 517 0
DWIDTH 12 0
BBX 12 20 0 -2
BITMAP
01A900
0BFF80
2FFFE0
7FFFF8
3FFFFC
3FFFFC
3FFFFD
2FFFFD
2FD7FD
2E87FC
100BF8
003FF4
003FF8
0006FC
0055FC
03F5FC
02FFF4
01FFF0
00BED0
001000
ENDCHAR
STARTCHAR four
ENCODING 52
SWIDTH 466 0
DWIDTH 11 0
BBX 10 24 1 -6
BITMAP
6AABD0
2FFE00
2FFC00
3FF400
3FF400
3FF000
7FE000
7FD000
7FD000
3FC000
3FAA40
7FAF80
7F6F40
BF2F40
BFAF50
BFFFE0
FFFFD0
FFFFD0
516FD0
001E00
000E00
000E00
000E00
000100
ENDCHAR
STARTCHAR five
ENCODING 53
SWIDTH 583 0
DWIDTH 14 0
BBX 13 20 1 -2
BITMAP
ABEA9500
BFFFFF40
BFFFFF40
BFFFFF00
BFFFFF00
BFFFFE00
BFFFFE00
BFFFFD00
BFAAFD00
BF400000
7F555000
7FFFD000
3FFFD000
001BF000
0157F000
0FE3E000
0BFFD000
03FFC000
02FB4000
00400000
ENDCHAR
STARTCHAR six
ENCODING 54
SWIDTH 582 0
DWIDTH 14 0
BBX 12 20 1 -2
BITMAP
059500
1FFFE0
BFFFF8
FFFFFD
FFFFFF
FFFFFF
FFFFFE
FFFFFE
BFDBFD
BF87FC
7F83FC
3F9414
2FFFE4
2FEAFC
1FC1FC
1FD1FC
0FFBFC
0BFFFC
03FFF8
016A50
ENDCHAR
STARTCHAR seven
ENCODING 55
SWIDTH 624 0
DWIDTH 15 0
BBX 15 21 0 -3
BITMAP
156ABFA8
7FFFFFF8
7FFFFFF4
3FFFFFE0
3FFFFFE0
2FFFFFD0
2FFFFFC0
2FFFFF80
1FEABF40
0000BF40
0000BF00
0001FD00
0002FC00
0003F800
0007F000
000BE000
000FD000
001F8000
002F4000
007F0000
00010000
ENDCHAR
STARTCHAR eight
ENCODING 56
SWIDTH 459 0
DWIDTH 11 0
BBX 9 20 1 -2
BITMAP
1AA900
BFFF80
FFFFC0
FFFFC0
FFFFC0
FFFFC0
BFFF80
BFBF80
7E2F40
7E2F40
3FAF00
1FFD00
1FFD00
2EBE00
2E3E00
2E3E00
2FBD00
1FFD00
0BB800
010000
ENDCHAR
STARTCHAR nine
ENCODING 57
SWIDTH 584 0
DWIDTH 14 0
BBX 12 21 1 -3
BITMAP
006A40
07FFE0
1FFFFC
3FFFFD
BFFFFE
FFFFFE
FFFFFF
FFFFFF
FFC7FF
BFC3FF
7FFFFF
2FFFFE
0BFFFD
0003F8
2BC3F8
3FDBF0
2FFFE0
1FFFC0
066980
001000
001000
ENDCHAR
STARTCHAR colon
ENCODING 58
SWIDTH 386 0
DWIDTH 9 0
BBX 7 20 1 1
BITMAP
0150
BFF8
7FF8
3FF8
7FF8
7FF8
3FFC
3EA8
0000
0000
0000
0000
1550
BFF8
BFF8
7FF8
7FF8
7FF8
3FF8
3E64
ENDCHAR
STARTCHAR semicolon
ENCODING 59
SWIDTH 375 0
DWIDTH 9 0
BBX 7 25 1 -4
BITMAP
0150
BFF8
BFF8
7FF4
7FF8
7FF8
7FF8
7AA4
1000
0000
0000
0000
1000
BFF4
BFF4
7FF8
7FF8
BFF4
BFF4
BBF8
00F4
01F4
01F0
02F0
01A0
ENDCHAR
STARTCHAR less
ENCODING 60
SWIDTH 459 0
DWIDTH 11 0
BBX 11 14 0 1
BITMAP
00AAA0
01FFE0
02FF80
03FF00
0FFD00
3FF800
7FF000
2FF800
1FFC00
07FD00
02FF40
00BFD0
002FF4
000040
ENDCHAR
STARTCHAR equal
ENCODING 61
SWIDTH 485 0
DWIDTH 12 0
BBX 9 8 1 7
BITMAP
6A6580
7FFFC0
7FFFC0
155540
000000
6AAA80
BFFFC0
6FFF80
ENDCHAR
STARTCHAR greater
ENCODING 62
SWIDTH 432 0
DWIDTH 10 0
BBX 9 13 1 2
BITMAP
AA9000
BFE000
3FF000
0FF800
0BFD00
02FF40
01FF80
02FF00
03FE00
0BF800
2FF400
FFE000
FF8000
ENDCHAR
STARTCHAR question
ENCODING 63
SWIDTH 577 0
DWIDTH 14 0
BBX 11 22 1 -3
BITMAP
02A900
1FFF80
3FFFF0
BFFFF8
BFFFFC
BFFFFC
BFFFFC
7F9FFC
7F4BF8
000FF8
001FF0
002FD0
003FC0
003F40
007A00
000000
000000
02FE00
01FE00
01FE00
01FE00
009500
ENDCHAR
STARTCHAR at
ENCODING 64
SWIDTH 930 0
DWIDTH 22 0
BBX 22 27 0 -6
BITMAP
000069500000
0007FFF80000
001FFFFF0000
007FA56FC000
00F80007F000
02E1BFF1F800
0787FFFCBE00
0B4BFFFD3F00
0E0FFFFD2F80
1E0FFFFC1FC0
2D0BFFFC1FD0
3D07F9FC1FD0
7D03F0F80FE0
3D0790F80FE0
3D016EF80BD0
3D03FAFC0BD0
2E03E0FD07C0
2F03E1FF47C0
1F43FFFFEF80
1F83FFF7FF00
0BD19A92E400
07E000000000
02F800000000
00BE55540000
002FFFFC0000
0006FFF80000
000014000000
ENDCHAR
STARTCHAR A
ENCODING 65
SWIDTH 494 0
DWIDTH 12 0
BBX 11 23 0 -5
BITMAP
055540
6FFFF8
0BFFF0
07FFD0
07FFD0
07FFC0
07FFC0
07FFC0
07FFC0
07EFC0
07DFC0
07DBC0
0BCBC0
07EF80
0BFFC0
0BFF80
07FF80
07DB40
078B40
064700
010200
000100
000400
ENDCHAR
STARTCHAR B
ENCODING 66
SWIDTH 517 0
DWIDTH 12 0
BBX 12 19 0 -1
BITMAP
05AA90
7FFFFC
1FFFFE
0BFFFE
07FFFD
0BFFFD
07FFFD
07FBFC
07F4FC
07F5F8
07FAF4
07FFF0
03FFE0
03FAF0
03F1F0
02F1F0
02FAF0
02FFE0
012AD0
ENDCHAR
STARTCHAR C
ENCODING 67
SWIDTH 504 0
DWIDTH 12 0
BBX 12 21 0 -3
BITMAP
00AA80
07FFE4
1FFFF8
3FFFFD
7FFFFD
7FFFFD
7FFFFD
7FFFFD
3FE7FD
3FD2FD
2FD1A8
2FD000
1FD000
1FD194
0FD3F4
0BE7F4
07FFF0
07FFD0
009B40
004600
000500
ENDCHAR
STARTCHAR D
ENCODING 68
SWIDTH 522 0
DWIDTH 13 0
BBX 11 22 1 -4
BITMAP
005640
BFFFD0
FFFFF4
BFFFF8
3FFFFC
3FFFFC
2FFFFC
2FFFFC
2FE2F8
1FD1F8
1FD1F4
1FD1F0
0FD1F0
0FD2E0
0BD3E0
0BFFE0
0BFFD0
0A6F80
092E00
042800
042000
001000
ENDCHAR
STARTCHAR E
ENCODING 69
SWIDTH 570 0
DWIDTH 14 0
BBX 12 19 1 -1
BITMAP
5AAA50
FFFFFE
7FFFFC
2FFFFC
2FFFF8
2FFFF4
2FFFF0
2FFFE0
2FD190
1FD000
1FFF40
1FFF40
0FFF40
0FD500
0FD000
0BFF80
0BFF80
09BE80
087440
ENDCHAR
STARTCHAR F
ENCODING 70
SWIDTH 559 0
DWIDTH 13 0
BBX 13 20 0 -2
BITMAP
15A55400
7FFFFF40
1FFFFE00
07FFFD00
03FFFD00
03FFFC00
03FFFC00
03FFFC00
02FEAC00
02FC0400
02FFF400
02FFF400
02FFF400
01FD1000
01FC0000
01FD0000
02FD0000
02FD0000
01750000
01100000
ENDCHAR
STARTCHAR G
ENCODING 71
SWIDTH 499 0
DWIDTH 12 0
BBX 11 21 1 -3
BITMAP
01A400
1FFF40
BFFFE0
FFFFF0
FFFFF4
FFFFF4
FFFFF4
FFFFF4
BF2FF0
BF0FF0
7E0AF0
7E1540
7F2FE0
7F2FF0
3F5BF0
3F8BE0
2FFFE0
1FFFD0
06BF40
015100
010000
ENDCHAR
STARTCHAR H
ENCODING 72
SWIDTH 726 0
DWIDTH 17 0
BBX 17 23 0 -5
BITMAP
005A1A9400
6BFE1FFF80
1FFD0FFF00
0FFD0BFD00
0BFD0FFC00
0BFD1FF800
07FC1FF400
07FC1FF400
03FC1FF000
03FC1FE000
02FFFFE000
02FFFFD000
01FFFFD000
01FD2FD000
01FD2FC000
00FD2F8000
00FD3F8000
00FD3F8000
00942F4000
0000054000
0000000000
0000100000
0000500000
ENDCHAR
STARTCHAR I
ENCODING 73
SWIDTH 401 0
DWIDTH 10 0
BBX 9 19 0 -1
BITMAP
6AAA80
3FFF40
1FFF00
0BFE00
07FF00
07FE00
07FE00
07FD00
07FD00
07FC00
03FD00
03FD00
03FC00
02FC00
02FC00
02FC00
01F800
01AC00
006400
ENDCHAR
STARTCHAR J
ENCODING 74
SWIDTH 455 0
DWIDTH 11 0
BBX 11 19 -1 -1
BITMAP
002A50
003FF8
002FF4
001FF4
001FF0
001FE0
001FD0
002FD0
002FD0
002FC0
001FC0
002F80
2A2F80
7E2F80
7E2F40
7F7F40
3FFE00
1BBE00
012100
ENDCHAR
STARTCHAR K
ENCODING 75
SWIDTH 580 0
DWIDTH 14 0
BBX 13 19 0 -1
BITMAP
5A546400
7FF8BFC0
1FF8FF00
0BF8F800
07F9F400
03FAF000
02FFE000
02FFE000
02FFE000
02FFE000
01FFE000
01FFE000
00FFF000
00FFF000
00FEF400
00F4F400
00B8B800
00B8B800
00445400
ENDCHAR
STARTCHAR L
ENCODING 76
SWIDTH 416 0
DWIDTH 10 0
BBX 11 20 0 -2
BITMAP
6AAA40
2FFD00
1FFC00
1FF400
0FF800
0FF800
0FF400
0FF400
0BF400
0BF400
0BF400
07F400
07F400
07F400
03F904
03FFF4
02FFF4
02FBF4
0056B0
000410
ENDCHAR
STARTCHAR M
ENCODING 77
SWIDTH 740 0
DWIDTH 18 0
BBX 16 19 1 -1
BITMAP
5AF87B94
FFF87FFE
7FFC7FF4
2FFDBFF4
2FFEFFF4
2FFFFFF0
1FFFFFF0
1FFFFFF0
1FFFFFF0
0FFFFFF0
0FFFFFF0
0BEFEFE0
0BEBDFE0
07F7DFE0
07F7DFD0
03F38FD0
03F28FC0
039155C0
02400040
ENDCHAR
STARTCHAR N
ENCODING 78
SWIDTH 610 0
DWIDTH 15 0
BBX 13 22 1 -4
BITMAP
55529400
FFE2FF80
7FF1FF00
3FF5FD00
3FF9FD00
2FFDFD00
2FFEFC00
2FFFFC00
1FFFF800
1FFFF800
1FFFF800
0FFFF400
0BEFF400
0BEFF400
0BDFF400
07DBF400
07D7F000
07D3F000
07D2A000
05129000
01110000
01110000
ENDCHAR
STARTCHAR O
ENCODING 79
SWIDTH 504 0
DWIDTH 12 0
BBX 12 20 0 -2
BITMAP
006900
07FFE0
1FFFF8
3FFFFD
7FFFFD
7FFFFD
3FFFFD
3FFFFD
3FD7FD
2FC3FD
2FC3FD
1FC2FD
1FC2FC
1FC3F8
0FD3F8
0BEBF4
0BFFF0
02FFD0
009780
005640
ENDCHAR
STARTCHAR P
ENCODING 80
SWIDTH 545 0
DWIDTH 13 0
BBX 13 19 0 -1
BITMAP
15AAA400
7FFFFE00
0FFFFF00
0BFFFF40
07FFFF40
07FFFF00
07FFFF00
03FEBF00
03FD3F00
02FC3E00
02FD3E00
01FE7E00
01FFFD00
01FFF800
00FD0000
00FD0000
00FD0000
00BD0000
005D0000
ENDCHAR
STARTCHAR Q
ENCODING 81
SWIDTH 520 0
DWIDTH 13 0
BBX 12 21 0 -3
BITMAP
001A40
02FFE0
1FFFF8
2FFFFD
3FFFFE
7FFFFE
7FFFFF
7FFAFF
3FF1FE
3FF0FE
2FF0FE
1FE0FE
1FF0FE
0FF1FD
0BF9FD
03FFFC
01FFF8
00BFFE
002FFE
00007C
000018
ENDCHAR
STARTCHAR R
ENCODING 82
SWIDTH 599 0
DWIDTH 14 0
BBX 14 20 0 -2
BITMAP
016AA400
7FFFFE40
1FFFFFD0
0BFFFFE0
07FFFFF0
03FFFFE0
03FFFFE0
02FEBFE0
02FD1FE0
02FD1FD0
01FE6FD0
01FFFF80
00FFFF80
00BFFE00
00BD7F00
00BD3F40
007E3F40
007E3F40
00691F80
00040000
ENDCHAR
STARTCHAR S
ENCODING 83
SWIDTH 504 0
DWIDTH 12 0
BBX 12 19 0 -1
BITMAP
001A40
02FFE0
0FFFFC
2FFFFE
3FFFFD
7FFFFD
7FFFFD
7FFFFD
7FD3FD
7FE169
3FFE40
1FFFE0
06FFF4
001BF8
1A93F8
2FE7F4
0FFFF0
0BFFD0
029A80
ENDCHAR
STARTCHAR T
ENCODING 84
SWIDTH 622 0
DWIDTH 15 0
BBX 13 21 1 -3
BITMAP
15AA9000
FFFFFF80
7FFFFF80
3FFFFF00
2FFFFF00
2FFFFF00
1FFFFF00
1FFFFE00
1EBFDA00
003F8000
003F8000
003F8000
003F8000
003F8000
003F4000
003F8000
002F8000
002F8000
002F8000
003E4000
00100000
ENDCHAR
STARTCHAR U
ENCODING 85
SWIDTH 637 0
DWIDTH 15 0
BBX 14 19 1 -1
BITMAP
5AA05400
BFE0FFD0
3FE1FF80
3FE1FF40
3FE1FF40
2FF1FF00
2FF1FE00
1FF1FE00
1FE1FD00
1FE1FC00
0FD2FC00
1FE2FC00
0FE2F800
0FF2F800
0BF3F800
0BFFF400
07FFF000
02E69000
00804000
ENDCHAR
STARTCHAR V
ENCODING 86
SWIDTH 570 0
DWIDTH 14 0
BBX 14 20 0 -2
BITMAP
5AA0AA90
2FE0FFC0
0FE0FF40
0BF1FF00
0BF1FE00
07F2FD00
07F2FC00
07F7F800
07F3F400
07F7F400
03FBF000
03FBF000
02FFE000
02FFD000
01FFD000
01FFC000
00FF8000
00FF4000
00BF4000
00560000
ENDCHAR
STARTCHAR W
ENCODING 87
SWIDTH 777 0
DWIDTH 19 0
BBX 19 18 0 0
BITMAP
0054B82900
1BF8B83FE4
6FF8FCBFD0
0BF9FDBF40
03FDFDFE00
01FEFFFC00
01FFFFF800
01FFFFF400
00BFFFF000
003FFFF000
002FFFF000
002FFFE000
001FEFD000
000FDFD000
000FDFC000
000B8F8000
00078F4000
00019B0000
ENDCHAR
STARTCHAR X
ENCODING 88
SWIDTH 587 0
DWIDTH 14 0
BBX 14 19 0 -1
BITMAP
05A09400
6FF8BFE0
0BF8FF80
02FDFD00
01FFF800
00BFF400
007FF000
007FE000
003FE000
003FD000
003FC000
002FC000
002FC000
003FD000
003FD000
007EE000
007AF000
00B9F400
00E56400
ENDCHAR
STARTCHAR Y
ENCODING 89
SWIDTH 688 0
DWIDTH 17 0
BBX 17 19 0 -1
BITMAP
16A8094000
6FFD0FFD40
07FF0FFE40
00FF6FF400
007FFFD000
001FFF8000
000FFF4000
0007FF0000
0007FF0000
0002FE0000
0001FE0000
0000FE0000
0000FE0000
0000BE0000
0000BD0000
0000BD0000
00007D0000
00007D0000
0000640000
ENDCHAR
STARTCHAR Z
ENCODING 90
SWIDTH 695 0
DWIDTH 17 0
BBX 16 19 1 -1
BITMAP
16AAA500
FFFFFFE9
BFFFFFF8
7FFFFFF4
2FFFFFE0
1FFFFFD0
0FFFFF80
0FFFFF40
0F4BFE00
040FF400
002FD000
003F8000
007F0000
00BE0000
00FD4000
02FFF400
03FFF000
03EFE000
00418000
ENDCHAR
STARTCHAR bracketleft
ENCODING 91
SWIDTH 410 0
DWIDTH 10 0
BBX 9 22 1 -1
BITMAP
6A9500
7FFF00
7FFF00
7FFF00
7FFF00
7F5100
7F4000
7F0000
7F0000
7F4000
BF4000
7F4000
BF4000
BF4000
BF4000
BF4000
7F4000
7F4000
3FAA40
3FFF00
2FBE00
141400
ENDCHAR
STARTCHAR backslash
ENCODING 92
SWIDTH 292 0
DWIDTH 7 0
BBX 7 21 0 -2
BITMAP
A000
B400
7800
7C00
3C00
2D00
2D00
1E00
0F40
0B80
07C0
03C0
02D0
01E0
00E0
00A0
00B0
0074
0038
002C
0018
ENDCHAR
STARTCHAR bracketright
ENCODING 93
SWIDTH 407 0
DWIDTH 10 0
BBX 9 22 0 -1
BITMAP
1AAA00
7FFF00
7FFF00
7FFF00
7FFF00
15BF00
007F00
007F00
007F00
007F40
007F40
007F40
007F40
007F40
007F40
007F40
007F00
007F40
6ABF40
7FFF40
7FFF40
054600
ENDCHAR
STARTCHAR asciicircum
ENCODING 94
SWIDTH 523 0
DWIDTH 13 0
BBX 11 9 1 17
BITMAP
015500
07FE00
0BFF40
1FFF80
2FEFD0
3F4FF0
BE07F4
FD02F4
240090
ENDCHAR
STARTCHAR underscore
ENCODING 95
SWIDTH 452 0
DWIDTH 11 0
BBX 9 4 1 -1
BITMAP
FFFF80
FFFF80
FFFF80
6A9640
ENDCHAR
STARTCHAR grave
ENCODING 96
SWIDTH 444 0
DWIDTH 11 0
BBX 8 6 1 18
BITMAP
0A00
0F80
2FF0
7FFD
05BF
0006
ENDCHAR
STARTCHAR a
ENCODING 97
SWIDTH 479 0
DWIDTH 12 0
BBX 12 20 0 -2
BITMAP
5ABEBD
3FFFF4
0FFFF0
0BFFE0
07FFE0
07FFE0
07FFE0
0BFFE0
07FFD0
07FFD0
07EBE0
0BEBE0
0BD7E0
0BD7E0
0BEFE0
0BFFD0
0BEFD0
0BD7D0
0BC3D0
078180
ENDCHAR
STARTCHAR b
ENCODING 98
SWIDTH 610 0
DWIDTH 15 0
BBX 13 20 1 -2
BITMAP
015AA400
BFFFFF00
BFFFFF80
3FFFFFC0
1FFFFFC0
0FFFFFC0
0FFFFFC0
0BFFFFC0
0BF4BF80
07F87F00
07F8BE00
07FFFD00
07FFF800
03FFFD00
03F4BE00
02F4BD00
02F8BD00
01FFFC00
01AFF800
0000A000
ENDCHAR
STARTCHAR c
ENCODING 99
SWIDTH 534 0
DWIDTH 13 0
BBX 13 19 0 -1
BITMAP
006F9000
03FFF400
1FFFFE00
3FFFFF40
7FFFFF00
7FFFFF40
7FFFFF40
3FFFFF00
3FF6FF00
2FF0FF00
1FF0BE00
1FE00000
1FE00000
0FF09000
0BF1F800
0BF6F800
03FFF400
02FFE000
016AC000
ENDCHAR
STARTCHAR d
ENCODING 100
SWIDTH 573 0
DWIDTH 14 0
BBX 13 21 1 -3
BITMAP
15A94000
BFFFF400
BFFFFC00
7FFFFF00
3FFFFF40
2FFFFF40
1FFFFF40
0FFFFF40
0FFEFF40
0BF4BF00
0BF0BE00
07F47D00
07F07C00
03F4B800
03F0F800
03F4F400
02FBF400
02FFF000
02EFE000
024BC000
01000000
ENDCHAR
STARTCHAR e
ENCODING 101
SWIDTH 632 0
DWIDTH 15 0
BBX 15 20 0 -2
BITMAP
016AA540
6FFFFFF4
2FFFFFE0
0FFFFFC0
0BFFFF80
0BFFFF80
07FFFF40
07FFFF40
03FD5B00
03FD0000
02FE5400
02FFFC00
01FFFC00
01FFF800
01FD0400
00FD5400
00FFFD00
00BFFC00
0053A800
00000400
ENDCHAR
STARTCHAR f
ENCODING 102
SWIDTH 559 0
DWIDTH 13 0
BBX 13 20 0 -2
BITMAP
15A55400
7FFFFF40
1FFFFE00
07FFFD00
03FFFD00
03FFFC00
03FFFC00
03FFFC00
02FEAC00
02FC0400
02FFF000
02FFF000
02FFF000
01FD1000
01FC0000
02FC0000
02FC0000
02FD0000
02650000
00110000
ENDCHAR
STARTCHAR g
ENCODING 103
SWIDTH 546 0
DWIDTH 13 0
BBX 13 20 0 -2
BITMAP
01654000
07FFF400
2FFFFD00
3FFFFF00
7FFFFF40
7FFFFF80
3FFFFF80
3FFFFF80
3FE7FF40
2FE1FF00
1FD0FF00
1FD00500
0FD3E500
0BE3FF00
0BF3FE00
07F4BE00
07FEFE00
03FFFE00
01FFFD00
005A5400
ENDCHAR
STARTCHAR h
ENCODING 104
SWIDTH 730 0
DWIDTH 18 0
BBX 16 20 1 -2
BITMAP
01A83AA5
BFF43FFE
3FF42FFC
2FF42FF8
2FF43FF0
2FF43FE0
1FF43FE0
1FF43FE0
0FF43FD0
0BF57FC0
0BFFFF80
07FFFF80
07FEFF40
07F4BF40
07F4BF00
03F4BF00
03F4BE00
03F4BE00
02007A00
00000100
ENDCHAR
STARTCHAR i
ENCODING 105
SWIDTH 412 0
DWIDTH 10 0
BBX 9 19 0 -1
BITMAP
5AA940
3FFF80
1FFF40
07FF00
03FF00
03FE00
03FD00
07FD00
03FC00
03FC00
03FC00
02FD00
02FC00
01F800
01F800
01F800
01F800
00F800
001400
ENDCHAR
STARTCHAR j
ENCODING 106
SWIDTH 458 0
DWIDTH 11 0
BBX 11 19 -1 -1
BITMAP
00AA40
00BFFC
007FF8
003FF4
002FF4
002FF0
002FF0
002FF0
002FE0
002FE0
001FE0
001FD0
2B1FD0
7F1FD0
3F5FD0
2FFFC0
1FFF80
0BFF40
005940
ENDCHAR
STARTCHAR k
ENCODING 107
SWIDTH 636 0
DWIDTH 15 0
BBX 15 19 0 -1
BITMAP
05551A90
7FFD3FE4
1FFD7F80
0BFDBE00
07FDBC00
03FDFC00
02FDF800
01FEF400
01FEF000
01FFE000
01FFE000
00FFE000
00BFF000
00BFF400
007EF800
007D7D00
007D3E00
007D2F00
00151900
ENDCHAR
STARTCHAR l
ENCODING 108
SWIDTH 438 0
DWIDTH 11 0
BBX 11 20 0 -2
BITMAP
06AAE0
6FFF40
0FFE00
0FFD00
0BFD00
0BFD00
07FC00
07FD00
03FD00
02FC00
02FC00
02FC00
02FC00
01FC00
01FE54
01FFFC
00FFF8
00FEF4
0084B4
004010
ENDCHAR
STARTCHAR m
ENCODING 109
SWIDTH 770 0
DWIDTH 18 0
BBX 17 20 1 -2
BITMAP
00692BE500
6FFD2FFF40
BFFD3FFD00
3FFE7FF800
2FFEBFF400
2FFFFFF000
2FFFFFF000
1FFFFFE000
1FFFFFE000
1FFFFFE000
0FFFFFD000
0FEFEFD000
0FEFEFC000
0BEBAF8000
0BEBAF8000
0BF76F4000
07E73F0000
07622A0000
0200010000
0100000000
ENDCHAR
STARTCHAR n
ENCODING 110
SWIDTH 664 0
DWIDTH 16 0
BBX 16 20 0 -2
BITMAP
5AA92555
3FFD2FFC
2FFE1FF8
0FFF5FF0
0FFF5FE0
0FFFAFE0
0FFFEFD0
0BFFFFD0
0BFFFFC0
0BFFFFC0
07FFFF80
07FFFF80
03FBFF40
03F7FF40
03F6FF00
02F5FF00
02F5FE00
02F4FD00
01E4F800
00406800
ENDCHAR
STARTCHAR o
ENCODING 111
SWIDTH 545 0
DWIDTH 13 0
BBX 13 20 0 -2
BITMAP
006A9000
07FFF800
1FFFFD00
3FFFFF40
7FFFFF40
7FFFFF40
3FFFFF80
3FFFFF40
3FE2FF80
2FD2FF40
2FD1FF40
1FD1FF00
1FD1FE00
0FD2FD00
0BE2FC00
0BF7FC00
07FFF800
02BFF000
0013A000
00011000
ENDCHAR
STARTCHAR p
ENCODING 112
SWIDTH 557 0
DWIDTH 13 0
BBX 12 19 1 -1
BITMAP
5A9A90
FFFFF8
7FFFFD
1FFFFE
1FFFFE
1FFFFE
1FFFFD
1FFBFD
0FF0FD
0FF0FC
0BF0FC
0BF6F8
0BFFF4
07FFF0
07F550
07F400
03F400
03F400
03B400
ENDCHAR
STARTCHAR q
ENCODING 113
SWIDTH 562 0
DWIDTH 14 0
BBX 13 21 0 -3
BITMAP
002A9000
02FFF800
1FFFFF00
2FFFFF40
3FFFFF80
7FFFFF80
7FFFFFC0
7FF9FFC0
3FF47F80
2FF47F80
2FF03F80
1FF03F80
1FF43F80
0FF4BF40
0BFDFF40
03FFFE00
01FFFE00
007FFF80
001AAF80
00000A00
00000500
ENDCHAR
STARTCHAR r
ENCODING 114
SWIDTH 616 0
DWIDTH 15 0
BBX 15 20 0 -2
BITMAP
016A9400
7FFFFF80
2FFFFFF0
0BFFFFF4
03FFFFF4
03FFFFF0
03FFFFF0
02FFBFE0
02FE1FE0
02FD1FD0
02FE2FD0
01FFFFC0
00FFFF80
00FFFE00
00FEBE00
00FD7E00
00FE7E00
00FD7E00
00F97E00
00400600
ENDCHAR
STARTCHAR s
ENCODING 115
SWIDTH 481 0
DWIDTH 12 0
BBX 11 20 0 -2
BITMAP
006A40
07FFD0
0FFFF8
2FFFFC
3FFFFC
7FFFF8
7FFFF8
7FFFF8
7FDBF8
3FD2B4
2FF904
2FFF80
0BFFD0
006FE0
054BE0
1FD7E0
0FFFD0
07FF80
03FB40
004000
ENDCHAR
STARTCHAR t
ENCODING 116
SWIDTH 683 0
DWIDTH 16 0
BBX 16 21 0 -3
BITMAP
05AAAA90
7FFFFFFD
2FFFFFFC
0FFFFFF4
0BFFFFF0
07FFFFF0
07FFFFF0
03FFFFF0
03EBF9A0
0107F800
0007F800
0007FC00
0007F800
0003F800
0003F800
0003F800
0002F800
0002F800
0002F800
0002F800
00002400
ENDCHAR
STARTCHAR u
ENCODING 117
SWIDTH 708 0
DWIDTH 17 0
BBX 16 18 1 0
BITMAP
16A41400
BFF82FF4
3FF83FFE
3FF83FF8
2FF83FF4
1FF83FF0
1FFC3FE0
0FFC3FD0
0FFC3FC0
0BF83FC0
0BF87FC0
0BF87F80
07FC7F80
07FC7F40
02FDBF40
02FFFF00
01FFFE00
0078A900
ENDCHAR
STARTCHAR v
ENCODING 118
SWIDTH 644 0
DWIDTH 15 0
BBX 14 20 1 -2
BITMAP
56906950
7FE0BFD0
2FE0FF80
1FF1FF00
0FF1FE00
0BF5FE00
0BF5FD00
07F5FD00
07F9FC00
03FAF800
02FAF800
02FAF400
01FFF000
00FFF000
00BFE000
007FD000
003FD000
001FC000
001F8000
00050000
ENDCHAR
STARTCHAR w
ENCODING 119
SWIDTH 704 0
DWIDTH 17 0
BBX 17 18 0 0
BITMAP
0051914000
6FF1E1FE40
1FF2F1FE00
07F6F6FD00
07F7FAF800
02FBFFF400
02FFFFF000
01FFFFE000
00FFFFD000
007FFFD000
003FFFD000
003FFFC000
002FEFC000
001FEFC000
000F9F8000
000F9F4000
000B9F4000
00055B4000
ENDCHAR
STARTCHAR x
ENCODING 120
SWIDTH 599 0
DWIDTH 14 0
BBX 14 19 0 -1
BITMAP
05A4A500
6FF8BFE0
0BFCFF80
02FEFD00
01FFF800
00BFF400
007FF000
003FF000
003FE000
003FE000
002FD000
001FD000
002FC000
003FD000
003FD000
003EE000
0079F000
00B9F400
00E45400
ENDCHAR
STARTCHAR y
ENCODING 121
SWIDTH 604 0
DWIDTH 15 0
BBX 13 20 1 -2
BITMAP
56409000
BFD1FE40
1FE2FF00
07F7FC00
03FBF400
01FFE000
00FFD000
00BFC000
00BFC000
007FC000
003F8000
003F8000
002F8000
002F8000
002F8000
002F8000
002F4000
002F0000
002E0000
00100000
ENDCHAR
STARTCHAR z
ENCODING 122
SWIDTH 622 0
DWIDTH 15 0
BBX 13 20 1 -2
BITMAP
1AAAA500
FFFFFFC0
BFFFFF80
7FFFFF40
2FFFFE00
1FFFFE00
0FFFFD00
0FFFFC00
0B9FF400
041FD000
002F8000
003F4000
007E0000
007D0000
00BC0000
00FFF000
01FFE000
02FFE000
0089A000
00001000
ENDCHAR
STARTCHAR braceleft
ENCODING 123
SWIDTH 372 0
DWIDTH 9 0
BBX 8 24 1 -3
BITMAP
0005
006D
02FD
07FD
0FFC
2FFC
7FFC
7FF8
BFF8
BFC0
FF40
FF40
FF40
FF00
FF00
FF00
FF40
BF80
7FC0
2FF0
1FF4
0BF8
03F8
0064
ENDCHAR
STARTCHAR bar
ENCODING 124
SWIDTH 208 0
DWIDTH 5 0
BBX 3 22 1 -3
BITMAP
74
74
B8
B4
78
74
74
74
74
74
74
74
74
74
74
74
74
74
74
B4
74
10
ENDCHAR
STARTCHAR braceright
ENCODING 125
SWIDTH 338 0
DWIDTH 8 0
BBX 7 23 0 -3
BITMAP
7900
7F80
3FF0
3FF8
3FFC
3FFC
3FFC
3FFC
1BFC
02FC
02F8
01F8
01F8
01F8
01F8
02F4
02F4
03F0
07E0
0BD0
7F80
7F00
7D00
ENDCHAR
STARTCHAR asciitilde
ENCODING 126
SWIDTH 535 0
DWIDTH 13 0
BBX 11 6 1 13
BITMAP
040240
7D1FE0
FFFFF8
7FFFF8
2FE6E0
064040
ENDCHAR
STARTCHAR exclamdown
ENCODING 161
SWIDTH 347 0
DWIDTH 8 0
BBX 8 29 0 1
BITMAP
1944
1FFD
1FFD
1FFD
1FFD
1FFD
3FFD
1AB9
0000
0000
0160
07E0
07F0
07F0
07F0
07F0
07F0
0BF4
0BF4
0FF0
1FF4
2FF8
2FF8
1FF8
1FFC
2FFC
3FFD
7FFE
1BA4
ENDCHAR
STARTCHAR cent
ENCODING 162
SWIDTH 552 0
DWIDTH 13 0
BBX 13 34 0 -9
BITMAP
00050000
00090000
000D0000
000D0000
000D0000
000D0000
000D0000
006F9000
03FFF800
1FFFFE00
2FFFFF40
3FFFFF40
7FFFFF40
7FFFFF40
3FFFFF40
2FF5FF00
2FF0FF00
1FF0AF00
1FF00000
0FF00000
0FF09000
0BF5FC00
07F6F800
03FFF800
02FFF000
016EC000
00094000
00080000
00080000
00090000
00090000
00090000
00090000
00050000
ENDCHAR
STARTCHAR sterling
ENCODING 163
SWIDTH 589 0
DWIDTH 14 0
BBX 13 20 1 -2
BITMAP
01950000
1FFFE000
7FFFF800
BFFFFE00
FFFFFF00
FFFFFF40
BFFFFF40
BFFFFF00
BFCBFE00
7F83FD00
7F82FD00
BFE41400
FFF40000
1FD00000
1FE55400
1FFFF400
2FFFF400
2FEFE000
159AD000
00404000
ENDCHAR
STARTCHAR yen
ENCODING 165
SWIDTH 692 0
DWIDTH 17 0
BBX 18 19 -1 2
BITMAP
5568024000
1FFE07FFD0
02FF47FF40
00BF8FFD00
003FEFF400
000FFFE000
000BFFC000
0007FFD000
06ABFFFF80
07FFFFAA40
0000FF4000
0255FF9640
07FFFFFF80
0155FF5500
0000BF0000
0000BF0000
00007F0000
00007F4000
00003A4000
ENDCHAR
STARTCHAR brokenbar
ENCODING 166
SWIDTH 201 0
DWIDTH 5 0
BBX 3 22 1 -3
BITMAP
B0
B4
B4
B4
B4
B0
74
64
00
00
00
00
00
74
74
70
70
74
74
74
74
50
ENDCHAR
STARTCHAR section
ENCODING 167
SWIDTH 477 0
DWIDTH 11 0
BBX 11 23 0 -5
BITMAP
006E40
02FFF4
0BFFF8
0FFFF8
0FFFF4
0FFFF0
0FFBF0
0FE3E0
0BF500
0BFF80
1FFFD0
3F9BE0
7F83E0
7F87D0
7FDBC0
3FFF80
1FFF00
01BF40
155F40
2F9F40
0FFE00
0BFD00
020000
ENDCHAR
STARTCHAR dieresis
ENCODING 168
SWIDTH 633 0
DWIDTH 15 0
BBX 13 6 1 19
BITMAP
6A91BF40
7FD2FF40
7FD2FF40
7FD2FF40
7FD2FF40
2A81A600
ENDCHAR
STARTCHAR copyright
ENCODING 169
SWIDTH 783 0
DWIDTH 19 0
BBX 17 21 1 -2
BITMAP
0005500000
007FFE0000
02E556D000
0B46F47400
2E1FFE0D00
7C3FFF4600
B47FFF4340
F0BFFF4280
E0BFFF4180
D07FBF41C0
E07F2F41C0
E07F1A0180
E03E000280
E03E140340
B02F2E0740
742F7E0A00
2C1FFD1D00
0E07B47800
07D006F000
01FEBF8000
001AA90000
ENDCHAR
STARTCHAR guillemotleft
ENCODING 171
SWIDTH 759 0
DWIDTH 18 0
BBX 16 14 1 1
BITMAP
01AA42AA
02FE0BFE
07FC1FF8
1FF83FF4
3FF07FE0
BFD0FFC0
FF81FF40
FF80FF80
7FD07FC0
1FE02FD0
0BF80FF4
02FD07FD
00FF41FF
00154005
ENDCHAR
STARTCHAR uni00AD
ENCODING 173
SWIDTH 446 0
DWIDTH 11 0
BBX 9 3 1 7
BITMAP
BEAB40
BFFF40
AFBB40
ENDCHAR
STARTCHAR registered
ENCODING 174
SWIDTH 780 0
DWIDTH 19 0
BBX 18 21 0 -2
BITMAP
0000500000
001FEB4000
00BD006400
03E6A40D00
0BFFFF4700
1E2FFFD280
2D1FFFD0C0
3C0FFFD0E0
380FEFD0A0
780FC7D0B0
340FCBC0F0
240BFF80A0
2407FF4090
2803EB4090
1D02F3C090
0B02F3D0C0
0781A2D240
02F4001A00
00BE55B800
001FFFE000
0001690000
ENDCHAR
STARTCHAR macron
ENCODING 175
SWIDTH 446 0
DWIDTH 11 0
BBX 9 3 1 7
BITMAP
BEAB40
BFFF40
AFFB40
ENDCHAR
STARTCHAR acute
ENCODING 180
SWIDTH 439 0
DWIDTH 11 0
BBX 8 6 1 18
BITMAP
0074
01F8
07FD
2FFE
BF90
6400
ENDCHAR
STARTCHAR mu
ENCODING 181
SWIDTH 679 0
DWIDTH 16 0
BBX 17 18 0 0
BITMAP
05A8050000
7FFC1FF900
2FFC1FFF40
1FFC1FFC00
0FFD1FFC00
0FFD1FF400
0BFD1FF000
07FD1FF000
07FD1FE000
07FD2FD000
03FD2FD000
03FD2FD000
03FD2FD000
02FD3FC000
01FD7F8000
00FFFF8000
00FFFF4000
0068AA0000
ENDCHAR
STARTCHAR paragraph
ENCODING 182
SWIDTH 591 0
DWIDTH 14 0
BBX 14 19 0 -1
BITMAP
019AA940
1FFFFFF0
3FFFFF80
7FFFEF40
7FFF8B40
3FFF8F40
3FFF8F00
2FFF4F00
1FFF4F00
0FFF4F00
07FF4E00
01974E00
00074D00
00074C00
00034C00
00034C00
00034C00
00034C00
00074C00
ENDCHAR
STARTCHAR periodcentered
ENCODING 183
SWIDTH 388 0
DWIDTH 9 0
BBX 7 8 1 5
BITMAP
6AE4
BFF8
7FF8
7FF8
3FFC
3FF8
3FF8
2510
ENDCHAR
STARTCHAR cedilla
ENCODING 184
SWIDTH 270 0
DWIDTH 7 0
BBX 5 8 1 -8
BITMAP
3C00
7800
B000
BF40
5B40
0740
6F40
AF40
ENDCHAR
STARTCHAR guillemotright
ENCODING 187
SWIDTH 767 0
DWIDTH 18 0
BBX 17 14 1 1
BITMAP
AA90950000
BFE0BF8000
3FF02FE000
1FF80FF400
0BFD07FC00
02FF03FE00
01FF41FF40
02FF01FF80
07FE03FF40
0FF80BFE00
3FF00FFC00
FFE02FF400
FF80BFD000
0000554000
ENDCHAR
STARTCHAR Agrave
ENCODING 192
SWIDTH 494 0
DWIDTH 12 0
BBX 12 30 -1 -5
BITMAP
0D0000
1F8000
7FE000
BFF900
06FE00
000500
000000
015550
1BFFFE
02FFFC
01FFF4
01FFF4
01FFF0
01FFF0
01FFF0
01FFF0
01FBF0
01F7F0
01F6F0
02F2F0
01FBE0
02FFF0
02FFE0
01FFE0
01F6D0
01E2D0
0191C0
004080
000040
000100
ENDCHAR
STARTCHAR Aacute
ENCODING 193
SWIDTH 494 0
DWIDTH 12 0
BBX 14 30 0 -5
BITMAP
00000740
00001F40
0000BFD0
0002FFE0
000BF900
00050000
00000000
05554000
6FFFF800
0BFFF000
07FFD000
07FFD000
07FFC000
07FFC000
07FFC000
07FFC000
07EFC000
07DFC000
07DBC000
0BCBC000
07EF8000
0BFFC000
0BFF8000
07FF8000
07DB4000
078B4000
06470000
01020000
00010000
00040000
ENDCHAR
STARTCHAR Acircumflex
ENCODING 194
SWIDTH 494 0
DWIDTH 12 0
BBX 11 32 0 -5
BITMAP
02FF00
03FF80
0BFFC0
0FFFE0
1FCBF0
3F02F8
7D00BC
740024
000000
055540
6FFFF8
0BFFF0
07FFD0
07FFD0
07FFC0
07FFC0
07FFC0
07FFC0
07EFC0
07DFC0
07DBC0
0BCBC0
07EF80
0BFFC0
0BFF80
07FF80
07DB40
078B40
064700
010200
000100
000400
ENDCHAR
STARTCHAR Atilde
ENCODING 195
SWIDTH 494 0
DWIDTH 12 0
BBX 12 30 0 -5
BITMAP
000040
1D07E0
7FAFF8
3FFFFD
1FFAF8
069050
000000
055540
6FFFF8
0BFFF0
07FFD0
07FFD0
07FFC0
07FFC0
07FFC0
07FFC0
07EFC0
07DFC0
07DBC0
0BCBC0
07EF80
0BFFC0
0BFF80
07FF80
07DB40
078B40
064700
010200
000100
000400
ENDCHAR
STARTCHAR Adieresis
ENCODING 196
SWIDTH 494 0
DWIDTH 12 0
BBX 12 30 0 -5
BITMAP
AA82BE
BFC3FE
FFC3FE
FFC3FF
BF83FE
6A82A9
000000
055540
6FFFF8
0BFFF0
07FFD0
07FFD0
07FFC0
07FFC0
07FFC0
07FFC0
07EFC0
07DFC0
07DBC0
0BCBC0
07EF80
0BFFC0
0BFF80
07FF80
07DB40
078B40
064700
010200
000100
000400
ENDCHAR
STARTCHAR Aring
ENCODING 197
SWIDTH 494 0
DWIDTH 12 0
BBX 11 30 0 -5
BITMAP
006900
02FF80
03D7D0
0382D0
02C280
02FF40
017D00
055540
6FFFF8
0BFFF0
07FFD0
07FFD0
07FFC0
07FFC0
07FFC0
07FFC0
07EFC0
07DFC0
07DBC0
0BCBC0
07EF80
0BFFC0
0BFF80
07FF80
07DB40
078B40
064700
010200
000100
000400
ENDCHAR
STARTCHAR AE
ENCODING 198
SWIDTH 733 0
DWIDTH 18 0
BBX 16 23 1 -5
BITMAP
055AAA50
BFFFFFFE
2FFFFFFC
2FFFFFF8
2FFFFFF4
1FFFFFF0
1FFFFFE0
1FFFFFE0
1FFFD190
1FBFD000
1F7FFF40
1F7FFF40
2F2FFF40
1FBFD500
2FFFD000
2FFFFF80
1FFFFF80
1F3DBE40
1E2CA540
091C9140
04089100
00044000
00100000
ENDCHAR
STARTCHAR Ccedilla
ENCODING 199
SWIDTH 504 0
DWIDTH 12 0
BBX 12 29 0 -11
BITMAP
00AA80
07FFE4
1FFFF8
3FFFFD
7FFFFD
7FFFFD
7FFFFD
7FFFFD
3FE7FD
3FD2FD
2FD1A8
2FD000
1FD000
1FD194
0FD3F4
0BE7F4
07FFF0
07FFD0
009B40
004600
000500
0001E0
0002D0
000380
0007FC
00017C
00003C
0002BC
0003BC
ENDCHAR
STARTCHAR Egrave
ENCODING 200
SWIDTH 570 0
DWIDTH 14 0
BBX 13 26 0 -1
BITMAP
0D000000
1F400000
7FE00000
BFF90000
06FE0000
00050000
00000000
16AA9400
3FFFFF80
1FFFFF00
0BFFFF00
0BFFFE00
0BFFFD00
0BFFFC00
0BFFF800
0BF46400
07F40000
07FFD000
07FFD000
03FFD000
03F54000
03F40000
02FFE000
02FFE000
026FA000
021D1000
ENDCHAR
STARTCHAR Eacute
ENCODING 201
SWIDTH 570 0
DWIDTH 14 0
BBX 14 26 1 -1
BITMAP
00000740
00001F40
0000BFD0
0002FFE0
000BF900
00050000
00000000
5AAA5000
FFFFFE00
7FFFFC00
2FFFFC00
2FFFF800
2FFFF400
2FFFF000
2FFFE000
2FD19000
1FD00000
1FFF4000
1FFF4000
0FFF4000
0FD50000
0FD00000
0BFF8000
0BFF8000
09BE8000
08744000
ENDCHAR
STARTCHAR Ecircumflex
ENCODING 202
SWIDTH 570 0
DWIDTH 14 0
BBX 12 28 1 -1
BITMAP
02FF00
03FF80
0BFFC0
0FFFE0
1F8BF0
3F02F8
7D00FC
740034
000000
5AAA50
FFFFFE
7FFFFC
2FFFFC
2FFFF8
2FFFF4
2FFFF0
2FFFE0
2FD190
1FD000
1FFF40
1FFF40
0FFF40
0FD500
0FD000
0BFF80
0BFF80
09BE80
087440
ENDCHAR
STARTCHAR Edieresis
ENCODING 203
SWIDTH 570 0
DWIDTH 14 0
BBX 12 26 1 -1
BITMAP
AA42BE
BF83FE
FF83FE
FFC3FF
FF83FE
6A82A9
000000
5AAA50
FFFFFE
7FFFFC
2FFFFC
2FFFF8
2FFFF4
2FFFF0
2FFFE0
2FD190
1FD000
1FFF40
1FFF40
0FFF40
0FD500
0FD000
0BFF80
0BFF80
09BE80
087440
ENDCHAR
STARTCHAR Igrave
ENCODING 204
SWIDTH 401 0
DWIDTH 10 0
BBX 11 26 -2 -1
BITMAP
1D0000
2F4000
7FD000
BFF800
06FE00
000500
000000
06AAA8
03FFF4
01FFF0
00BFE0
007FF0
007FE0
007FE0
007FD0
007FD0
007FC0
003FD0
003FD0
003FC0
002FC0
002FC0
002FC0
001F80
001AC0
000640
ENDCHAR
STARTCHAR Iacute
ENCODING 205
SWIDTH 401 0
DWIDTH 10 0
BBX 13 26 0 -1
BITMAP
00001C00
0000BD00
0002FE00
001FFF80
003FA400
00140000
00000000
6AAA8000
3FFF4000
1FFF0000
0BFE0000
07FF0000
07FE0000
07FE0000
07FD0000
07FD0000
07FC0000
03FD0000
03FD0000
03FC0000
02FC0000
02FC0000
02FC0000
01F80000
01AC0000
00640000
ENDCHAR
STARTCHAR Icircumflex
ENCODING 206
SWIDTH 401 0
DWIDTH 10 0
BBX 11 28 -1 -1
BITMAP
03FF00
07FF40
0BFFC0
1FFFD0
2F8BF0
3E03F4
BC00FC
700074
000000
1AAAA0
0FFFD0
07FFC0
02FF80
01FFC0
01FF80
01FF80
01FF40
01FF40
01FF00
00FF40
00FF40
00FF00
00BF00
00BF00
00BF00
007E00
006B00
001900
ENDCHAR
STARTCHAR Idieresis
ENCODING 207
SWIDTH 401 0
DWIDTH 10 0
BBX 12 26 -1 -1
BITMAP
AA46FD
FF87FE
FF87FD
FF87FE
FF87FE
AA4299
000000
1AAAA0
0FFFD0
07FFC0
02FF80
01FFC0
01FF80
01FF80
01FF40
01FF40
01FF00
00FF40
00FF40
00FF00
00BF00
00BF00
00BF00
007E00
006B00
001900
ENDCHAR
STARTCHAR Eth
ENCODING 208
SWIDTH 530 0
DWIDTH 13 0
BBX 12 22 1 -4
BITMAP
005A90
2FFFF4
3FFFFD
2FFFFE
1FFFFF
0FFFFF
0BFFFF
0BFFFF
0BF8BF
07F4BE
ABF97D
AFFD7C
07F4BC
03F4B8
03F4F4
02FFF4
02FFF4
02DBE0
024B40
020900
000800
000400
ENDCHAR
STARTCHAR Ntilde
ENCODING 209
SWIDTH 610 0
DWIDTH 15 0
BBX 13 29 1 -4
BITMAP
00004000
1E07F000
7FAFFC00
3FFFFD00
1FFEF800
06901000
00000000
55529400
FFE2FF80
7FF1FF00
3FF5FD00
3FF9FD00
2FFDFD00
2FFEFC00
2FFFFC00
1FFFF800
1FFFF800
1FFFF800
0FFFF400
0BEFF400
0BEFF400
0BDFF400
07DBF400
07D7F000
07D3F000
07D2A000
05129000
01110000
01110000
ENDCHAR
STARTCHAR Ograve
ENCODING 210
SWIDTH 504 0
DWIDTH 12 0
BBX 13 27 -1 -2
BITMAP
0D000000
1F400000
7FE00000
BFF90000
06FE0000
00050000
00000000
001A4000
01FFF800
07FFFE00
0FFFFF40
1FFFFF40
1FFFFF40
0FFFFF40
0FFFFF40
0FF5FF40
0BF0FF40
0BF0FF40
07F0BF40
07F0BF00
07F0FE00
03F4FE00
02FAFD00
02FFFC00
00BFF400
0025E000
00159000
ENDCHAR
STARTCHAR Oacute
ENCODING 211
SWIDTH 504 0
DWIDTH 12 0
BBX 14 27 0 -2
BITMAP
00000700
00001F40
0000BFD0
0006FFE0
000BF900
00050000
00000000
00690000
07FFE000
1FFFF800
3FFFFD00
7FFFFD00
7FFFFD00
3FFFFD00
3FFFFD00
3FD7FD00
2FC3FD00
2FC3FD00
1FC2FD00
1FC2FC00
1FC3F800
0FD3F800
0BEBF400
0BFFF000
02FFD000
00978000
00564000
ENDCHAR
STARTCHAR Ocircumflex
ENCODING 212
SWIDTH 504 0
DWIDTH 12 0
BBX 12 29 0 -2
BITMAP
02FF00
03FF80
0BFFC0
0FFFE0
1F8BF0
3F02F8
7C00FC
740034
000000
006900
07FFE0
1FFFF8
3FFFFD
7FFFFD
7FFFFD
3FFFFD
3FFFFD
3FD7FD
2FC3FD
2FC3FD
1FC2FD
1FC2FC
1FC3F8
0FD3F8
0BEBF4
0BFFF0
02FFD0
009780
005640
ENDCHAR
STARTCHAR Otilde
ENCODING 213
SWIDTH 504 0
DWIDTH 12 0
BBX 12 27 0 -2
BITMAP
000100
2C0BD0
FEBFF4
BFFFFC
2FFAF4
0A8040
000000
006900
07FFE0
1FFFF8
3FFFFD
7FFFFD
7FFFFD
3FFFFD
3FFFFD
3FD7FD
2FC3FD
2FC3FD
1FC2FD
1FC2FC
1FC3F8
0FD3F8
0BEBF4
0BFFF0
02FFD0
009780
005640
ENDCHAR
STARTCHAR Odieresis
ENCODING 214
SWIDTH 504 0
DWIDTH 12 0
BBX 12 27 0 -2
BITMAP
AA42BE
FF83FE
FF83FE
FF83FF
FF83FE
AA82A9
000000
006900
07FFE0
1FFFF8
3FFFFD
7FFFFD
7FFFFD
3FFFFD
3FFFFD
3FD7FD
2FC3FD
2FC3FD
1FC2FD
1FC2FC
1FC3F8
0FD3F8
0BEBF4
0BFFF0
02FFD0
009780
005640
ENDCHAR
STARTCHAR multiply
ENCODING 215
SWIDTH 359 0
DWIDTH 9 0
BBX 9 10 0 4
BITMAP
040400
1E2D00
7FBF00
7FFF00
0FFC00
1FFD00
7FFF00
7FBF40
1E2D00
040400
ENDCHAR
STARTCHAR Oslash
ENCODING 216
SWIDTH 658 0
DWIDTH 16 0
BBX 17 20 -1 -2
BITMAP
0006900000
00BFFE0000
02FFFF8180
07FFFFD600
0BFFFFE800
0BFFFFF000
07FFFFD000
07FFFFD000
07FD7FE000
03F87FE000
03F8FFE000
02FB7FD000
02FD3FC000
01FC3F8000
01FC7F8000
02FEBF4000
09FFFF0000
247FFE0000
500D790000
0004600000
ENDCHAR
STARTCHAR Ugrave
ENCODING 217
SWIDTH 637 0
DWIDTH 15 0
BBX 14 26 1 -1
BITMAP
1D000000
2F400000
7FE00000
BFF80000
06FE0000
00050000
00000000
5AA05400
BFE0FFD0
3FE1FF80
3FE1FF40
3FE1FF40
2FF1FF00
2FF1FE00
1FF1FE00
1FE1FD00
1FE1FC00
0FD2FC00
1FE2FC00
0FE2F800
0FF2F800
0BF3F800
0BFFF400
07FFF000
02E69000
00804000
ENDCHAR
STARTCHAR Uacute
ENCODING 218
SWIDTH 637 0
DWIDTH 15 0
BBX 15 26 1 -1
BITMAP
000001C0
00000BD0
00002FF4
0001FFF8
0003FE40
00014000
00000000
5AA05400
BFE0FFD0
3FE1FF80
3FE1FF40
3FE1FF40
2FF1FF00
2FF1FE00
1FF1FE00
1FE1FD00
1FE1FC00
0FD2FC00
1FE2FC00
0FE2F800
0FF2F800
0BF3F800
0BFFF400
07FFF000
02E69000
00804000
ENDCHAR
STARTCHAR Ucircumflex
ENCODING 219
SWIDTH 637 0
DWIDTH 15 0
BBX 14 28 1 -1
BITMAP
00BFC000
01FFD000
02FFF000
03FFF400
0BE2FC00
0F80FD00
1F003F00
1D001D00
00000000
5AA05400
BFE0FFD0
3FE1FF80
3FE1FF40
3FE1FF40
2FF1FF00
2FF1FE00
1FF1FE00
1FE1FD00
1FE1FC00
0FD2FC00
1FE2FC00
0FE2F800
0FF2F800
0BF3F800
0BFFF400
07FFF000
02E69000
00804000
ENDCHAR
STARTCHAR Udieresis
ENCODING 220
SWIDTH 637 0
DWIDTH 15 0
BBX 14 26 1 -1
BITMAP
2A91BF80
3FE1FF80
3FE1FF80
3FE1FF80
3FE1FF80
2A90A640
00000000
5AA05400
BFE0FFD0
3FE1FF80
3FE1FF40
3FE1FF40
2FF1FF00
2FF1FE00
1FF1FE00
1FE1FD00
1FE1FC00
0FD2FC00
1FE2FC00
0FE2F800
0FF2F800
0BF3F800
0BFFF400
07FFF000
02E69000
00804000
ENDCHAR
STARTCHAR Yacute
ENCODING 221
SWIDTH 688 0
DWIDTH 17 0
BBX 17 26 0 -1
BITMAP
0000002800
000000BC00
000003FE00
00001FFF40
00003F9000
0000240000
0000000000
16A8094000
6FFD0FFD40
07FF0FFE40
00FF6FF400
007FFFD000
001FFF8000
000FFF4000
0007FF0000
0007FF0000
0002FE0000
0001FE0000
0000FE0000
0000FE0000
0000BE0000
0000BD0000
0000BD0000
00007D0000
00007D0000
0000640000
ENDCHAR
STARTCHAR Thorn
ENCODING 222
SWIDTH 521 0
DWIDTH 13 0
BBX 12 25 0 -3
BITMAP
6AEC00
7FF800
7FF800
7FF400
3FFAA0
3FFFFC
2FFFFE
2FFFFE
2FFFFE
2FFFFE
2FFFFE
1FFAFE
1FF4BD
0FF47D
0FF47C
0BF9BC
0BFFF8
07FFF0
03F440
07F400
07F400
03F800
027400
021400
015000
ENDCHAR
STARTCHAR germandbls
ENCODING 223
SWIDTH 546 0
DWIDTH 13 0
BBX 12 20 1 -2
BITMAP
015540
2FFFF4
BFFFFC
FFFFFD
FFFFFD
FFFFFD
FFFFFD
FFFFFC
FF87F8
BF87F4
BF87F0
7FAFE0
7F9FC0
3F9FE0
3F87E0
3F87E0
3F87D0
2FAFD0
2AAF80
000640
ENDCHAR
STARTCHAR agrave
ENCODING 224
SWIDTH 479 0
DWIDTH 12 0
BBX 13 27 -1 -2
BITMAP
0A000000
0F800000
2FE00000
7FFD0000
05BF0000
00060000
00000000
16AFAF40
0FFFFD00
03FFFC00
02FFF800
01FFF800
01FFF800
01FFF800
02FFF800
01FFF400
01FFF400
01FAF800
02FAF800
02F5F800
02F5F800
02FBF800
02FFF400
02FBF400
02F5F400
02F0F400
01E06000
ENDCHAR
STARTCHAR aacute
ENCODING 225
SWIDTH 479 0
DWIDTH 12 0
BBX 15 27 0 -2
BITMAP
00000340
00001F80
00007FD0
0002FFE4
0007F900
00024000
00000000
5ABEBD00
3FFFF400
0FFFF000
0BFFE000
07FFE000
07FFE000
07FFE000
0BFFE000
07FFD000
07FFD000
07EBE000
0BEBE000
0BD7E000
0BD7E000
0BEFE000
0BFFD000
0BEFD000
0BD7D000
0BC3D000
07818000
ENDCHAR
STARTCHAR acircumflex
ENCODING 226
SWIDTH 479 0
DWIDTH 12 0
BBX 12 30 0 -2
BITMAP
01FF40
02FFC0
07FFD0
0BFFF0
0FD7F4
2F41FC
3D00BD
280028
000000
000000
5ABEBD
3FFFF4
0FFFF0
0BFFE0
07FFE0
07FFE0
07FFE0
0BFFE0
07FFD0
07FFD0
07EBE0
0BEBE0
0BD7E0
0BD7E0
0BEFE0
0BFFD0
0BEFD0
0BD7D0
0BC3D0
078180
ENDCHAR
STARTCHAR atilde
ENCODING 227
SWIDTH 479 0
DWIDTH 12 0
BBX 12 27 0 -2
BITMAP
000140
2D07E0
BFBFF8
7FFFFD
1FFAF4
069050
000000
5ABEBD
3FFFF4
0FFFF0
0BFFE0
07FFE0
07FFE0
07FFE0
0BFFE0
07FFD0
07FFD0
07EBE0
0BEBE0
0BD7E0
0BD7E0
0BEFE0
0BFFD0
0BEFD0
0BD7D0
0BC3D0
078180
ENDCHAR
STARTCHAR adieresis
ENCODING 228
SWIDTH 479 0
DWIDTH 12 0
BBX 12 27 0 -2
BITMAP
6A82BF
BFC2FF
BFC2FF
BFC2FF
BFC2FF
6A81A6
000000
5ABEBD
3FFFF4
0FFFF0
0BFFE0
07FFE0
07FFE0
07FFE0
0BFFE0
07FFD0
07FFD0
07EBE0
0BEBE0
0BD7E0
0BD7E0
0BEFE0
0BFFD0
0BEFD0
0BD7D0
0BC3D0
078180
ENDCHAR
STARTCHAR aring
ENCODING 229
SWIDTH 479 0
DWIDTH 12 0
BBX 12 29 0 -2
BITMAP
006A00
02FF80
03D7D0
02C1D0
02D2C0
01FF40
006E00
000000
000000
5ABEBD
3FFFF4
0FFFF0
0BFFE0
07FFE0
07FFE0
07FFE0
0BFFE0
07FFD0
07FFD0
07EBE0
0BEBE0
0BD7E0
0BD7E0
0BEFE0
0BFFD0
0BEFD0
0BD7D0
0BC3D0
078180
ENDCHAR
STARTCHAR ae
ENCODING 230
SWIDTH 755 0
DWIDTH 18 0
BBX 17 20 1 -2
BITMAP
6AFAFA9400
FFFFFFFF40
2FFFFFFE00
1FFFFFFC00
1FFFFFF800
1FFFFFF400
1FFFFFF400
1FFFFFF400
1FFFE5B000
0FFFE00000
1FEFE54000
1F9FFF8000
2F9FFF8000
2F5FFF8000
1FAFE00000
2FFFE54000
1FFFFFC000
1F9FFFC000
2F0F6A8000
1E06004000
ENDCHAR
STARTCHAR ccedilla
ENCODING 231
SWIDTH 534 0
DWIDTH 13 0
BBX 13 27 0 -9
BITMAP
006F9000
03FFF400
1FFFFE00
3FFFFF40
7FFFFF00
7FFFFF40
7FFFFF40
3FFFFF00
3FF6FF00
2FF0FF00
1FF0BE00
1FE00000
1FE00000
0FF09000
0BF1F800
0BF6F800
03FFF400
02FFE000
016AC000
0003C000
00078000
000B0000
000BF400
0005B400
00007400
0006F400
000AF400
ENDCHAR
STARTCHAR egrave
ENCODING 232
SWIDTH 632 0
DWIDTH 15 0
BBX 15 27 0 -2
BITMAP
0A000000
0FD00000
1FF40000
6FFE0000
01BF4000
00060000
00000000
016AA540
6FFFFFF4
2FFFFFE0
0FFFFFC0
0BFFFF80
0BFFFF80
07FFFF40
07FFFF40
03FD5B00
03FD0000
02FE5400
02FFFC00
01FFFC00
01FFF800
01FD0400
00FD5400
00FFFD00
00BFFC00
0053A800
00000400
ENDCHAR
STARTCHAR eacute
ENCODING 233
SWIDTH 632 0
DWIDTH 15 0
BBX 16 27 0 -2
BITMAP
000000A0
000002F0
00000FF8
00007FFD
0000FE40
00009000
00000000
016AA540
6FFFFFF4
2FFFFFE0
0FFFFFC0
0BFFFF80
0BFFFF80
07FFFF40
07FFFF40
03FD5B00
03FD0000
02FE5400
02FFFC00
01FFFC00
01FFF800
01FD0400
00FD5400
00FFFD00
00BFFC00
0053A800
00000400
ENDCHAR
STARTCHAR ecircumflex
ENCODING 234
SWIDTH 632 0
DWIDTH 15 0
BBX 15 29 0 -2
BITMAP
003FE000
00BFF000
00FFF800
01FFFD00
03F4FE00
07E07F40
0B801F80
0A000600
00000000
016AA540
6FFFFFF4
2FFFFFE0
0FFFFFC0
0BFFFF80
0BFFFF80
07FFFF40
07FFFF40
03FD5B00
03FD0000
02FE5400
02FFFC00
01FFFC00
01FFF800
01FD0400
00FD5400
00FFFD00
00BFFC00
0053A800
00000400
ENDCHAR
STARTCHAR edieresis
ENCODING 235
SWIDTH 632 0
DWIDTH 15 0
BBX 15 27 0 -2
BITMAP
0AA46FD0
1FF4BFD0
1FF4BFD0
1FF4BFD0
1FF4BFD0
0AA46990
00000000
016AA540
6FFFFFF4
2FFFFFE0
0FFFFFC0
0BFFFF80
0BFFFF80
07FFFF40
07FFFF40
03FD5B00
03FD0000
02FE5400
02FFFC00
01FFFC00
01FFF800
01FD0400
00FD5400
00FFFD00
00BFFC00
0053A800
00000400
ENDCHAR
STARTCHAR igrave
ENCODING 236
SWIDTH 411 0
DWIDTH 10 0
BBX 11 26 -2 -1
BITMAP
1D0000
1F4000
7FE000
BFF900
06FE00
000500
000000
05AA94
03FFF8
01FFF4
007FF0
003FF0
003FE0
003FD0
007FD0
003FC0
003FC0
003FC0
002FD0
002FC0
001F80
001F80
001F80
001F80
000F80
000140
ENDCHAR
STARTCHAR iacute
ENCODING 237
SWIDTH 411 0
DWIDTH 10 0
BBX 13 26 0 -1
BITMAP
00001C00
00007D00
0002FF40
001BFF80
002FE400
00140000
00000000
5AA94000
3FFF8000
1FFF4000
07FF0000
03FF0000
03FE0000
03FD0000
07FD0000
03FC0000
03FC0000
03FC0000
02FD0000
02FC0000
01F80000
01F80000
01F80000
01F80000
00F80000
00140000
ENDCHAR
STARTCHAR icircumflex
ENCODING 238
SWIDTH 411 0
DWIDTH 10 0
BBX 11 28 0 -1
BITMAP
03FE00
0BFF00
0FFF80
1FFFD0
3F4FE0
7E07F4
B801F8
A00060
000000
5AA940
3FFF80
1FFF40
07FF00
03FF00
03FE00
03FD00
07FD00
03FC00
03FC00
03FC00
02FD00
02FC00
01F800
01F800
01F800
01F800
00F800
001400
ENDCHAR
STARTCHAR idieresis
ENCODING 239
SWIDTH 411 0
DWIDTH 10 0
BBX 12 26 -1 -1
BITMAP
AA42BE
FF83FE
FF83FE
FF83FF
FF83FE
AA42A9
000000
16AA50
0FFFE0
07FFD0
01FFC0
00FFC0
00FF80
00FF40
01FF40
00FF00
00FF00
00FF00
00BF40
00BF00
007E00
007E00
007E00
007E00
003E00
000500
ENDCHAR
STARTCHAR eth
ENCODING 240
SWIDTH 530 0
DWIDTH 13 0
BBX 12 22 1 -4
BITMAP
005A90
2FFFF4
3FFFFD
2FFFFE
1FFFFF
0FFFFF
0BFFFF
0BFFFF
0BF8BF
07F4BE
ABF97D
AFFD7C
07F4BC
03F4B8
03F4F4
02FFF4
02FFF4
02DBE0
024B40
020900
000800
000400
ENDCHAR
STARTCHAR ntilde
ENCODING 241
SWIDTH 664 0
DWIDTH 16 0
BBX 16 27 0 -2
BITMAP
00001400
02D07E00
0BFBFF80
07FFFFC0
01FFAF40
00690500
00000000
5AA92555
3FFD2FFC
2FFE1FF8
0FFF5FF0
0FFF5FE0
0FFFAFE0
0FFFEFD0
0BFFFFD0
0BFFFFC0
0BFFFFC0
07FFFF80
07FFFF80
03FBFF40
03F7FF40
03F6FF00
02F5FF00
02F5FE00
02F4FD00
01E4F800
00406800
ENDCHAR
STARTCHAR ograve
ENCODING 242
SWIDTH 545 0
DWIDTH 13 0
BBX 14 27 -1 -2
BITMAP
0A000000
0FC00000
2FF40000
7FFE0000
01BF4000
00060000
00000000
001AA400
01FFFE00
07FFFF40
0FFFFFD0
1FFFFFD0
1FFFFFD0
0FFFFFE0
0FFFFFD0
0FF8BFE0
0BF4BFD0
0BF47FD0
07F47FC0
07F47F80
03F4BF40
02F8BF00
02FDFF00
01FFFE00
00AFFC00
0004E800
00004400
ENDCHAR
STARTCHAR oacute
ENCODING 243
SWIDTH 545 0
DWIDTH 13 0
BBX 15 27 0 -2
BITMAP
00000280
00000BC0
00007FE0
0001FFE4
0007F900
00024000
00000000
006A9000
07FFF800
1FFFFD00
3FFFFF40
7FFFFF40
7FFFFF40
3FFFFF80
3FFFFF40
3FE2FF80
2FD2FF40
2FD1FF40
1FD1FF00
1FD1FE00
0FD2FD00
0BE2FC00
0BF7FC00
07FFF800
02BFF000
0013A000
00011000
ENDCHAR
STARTCHAR ocircumflex
ENCODING 244
SWIDTH 545 0
DWIDTH 13 0
BBX 13 29 0 -2
BITMAP
01FF8000
02FFC000
03FFE000
0BFFF000
0FD3F800
1F81FC00
2E007E00
28001800
00000000
006A9000
07FFF800
1FFFFD00
3FFFFF40
7FFFFF40
7FFFFF40
3FFFFF80
3FFFFF40
3FE2FF80
2FD2FF40
2FD1FF40
1FD1FF00
1FD1FE00
0FD2FD00
0BE2FC00
0BF7FC00
07FFF800
02BFF000
0013A000
00011000
ENDCHAR
STARTCHAR otilde
ENCODING 245
SWIDTH 545 0
DWIDTH 13 0
BBX 13 27 0 -2
BITMAP
00004000
1E07F000
7FAFF800
3FFFFD00
1FFEF800
06901000
00000000
006A9000
07FFF800
1FFFFD00
3FFFFF40
7FFFFF40
7FFFFF40
3FFFFF80
3FFFFF40
3FE2FF80
2FD2FF40
2FD1FF40
1FD1FF00
1FD1FE00
0FD2FD00
0BE2FC00
0BF7FC00
07FFF800
02BFF000
0013A000
00011000
ENDCHAR
STARTCHAR odieresis
ENCODING 246
SWIDTH 545 0
DWIDTH 13 0
BBX 13 27 0 -2
BITMAP
6A91BF40
7FD2FF40
7FD2FF40
7FD2FF40
7FD2FF40
2A81A600
00000000
006A9000
07FFF800
1FFFFD00
3FFFFF40
7FFFFF40
7FFFFF40
3FFFFF80
3FFFFF40
3FE2FF80
2FD2FF40
2FD1FF40
1FD1FF00
1FD1FE00
0FD2FD00
0BE2FC00
0BF7FC00
07FFF800
02BFF000
0013A000
00011000
ENDCHAR
STARTCHAR oslash
ENCODING 248
SWIDTH 676 0
DWIDTH 16 0
BBX 16 20 0 -2
BITMAP
006A9000
02FFF409
0FFFFD28
2FFFFFA0
3FFFFF80
3FFFFF40
2FFFFF40
2FFFFF40
1FF2FF40
1FE3FF40
1FDAFF00
0FF4FF00
0FE1FE00
0BD1FD00
0BE2FC00
1BF7FC00
63FFF800
81BFF000
0013A000
00011000
ENDCHAR
STARTCHAR ugrave
ENCODING 249
SWIDTH 708 0
DWIDTH 17 0
BBX 16 25 1 0
BITMAP
07000000
0BD00000
1FF40000
6FFE0000
01BF4000
00064000
00000000
16A41400
BFF82FF4
3FF83FFE
3FF83FF8
2FF83FF4
1FF83FF0
1FFC3FE0
0FFC3FD0
0FFC3FC0
0BF83FC0
0BF87FC0
0BF87F80
07FC7F80
07FC7F40
02FDBF40
02FFFF00
01FFFE00
0078A900
ENDCHAR
STARTCHAR uacute
ENCODING 250
SWIDTH 708 0
DWIDTH 17 0
BBX 16 25 1 0
BITMAP
000000A0
000002F0
00000BF8
00007FFD
0000FE50
00005000
00000000
16A41400
BFF82FF4
3FF83FFE
3FF83FF8
2FF83FF4
1FF83FF0
1FFC3FE0
0FFC3FD0
0FFC3FC0
0BF83FC0
0BF87FC0
0BF87F80
07FC7F80
07FC7F40
02FDBF40
02FFFF00
01FFFE00
0078A900
ENDCHAR
STARTCHAR ucircumflex
ENCODING 251
SWIDTH 708 0
DWIDTH 17 0
BBX 16 27 1 0
BITMAP
003FE000
007FF400
00FFF800
01FFFD00
02F8BE00
07E03F40
0B801F80
07000700
00000000
16A41400
BFF82FF4
3FF83FFE
3FF83FF8
2FF83FF4
1FF83FF0
1FFC3FE0
0FFC3FD0
0FFC3FC0
0BF83FC0
0BF87FC0
0BF87F80
07FC7F80
07FC7F40
02FDBF40
02FFFF00
01FFFE00
0078A900
ENDCHAR
STARTCHAR udieresis
ENCODING 252
SWIDTH 708 0
DWIDTH 17 0
BBX 16 25 1 0
BITMAP
0AA46FD0
0FF87FD0
0FF87FD0
0FF87FE0
0FF47FE0
0AA46990
00000000
16A41400
BFF82FF4
3FF83FFE
3FF83FF8
2FF83FF4
1FF83FF0
1FFC3FE0
0FFC3FD0
0FFC3FC0
0BF83FC0
0BF87FC0
0BF87F80
07FC7F80
07FC7F40
02FDBF40
02FFFF00
01FFFE00
0078A900
ENDCHAR
STARTCHAR yacute
ENCODING 253
SWIDTH 604 0
DWIDTH 15 0
BBX 15 27 1 -2
BITMAP
00000280
00001FC0
00007FE0
0002FFE4
0007F900
00024000
00000000
56409000
BFD1FE40
1FE2FF00
07F7FC00
03FBF400
01FFE000
00FFD000
00BFC000
00BFC000
007FC000
003F8000
003F8000
002F8000
002F8000
002F8000
002F8000
002F4000
002F0000
002E0000
00100000
ENDCHAR
STARTCHAR thorn
ENCODING 254
SWIDTH 498 0
DWIDTH 12 0
BBX 12 25 0 -3
BITMAP
6AA800
7FF400
7FF400
7FF000
3FFA90
3FFFF8
2FFFFC
2FFFFC
2FFFFD
2FFFFD
2FFFFC
1FFBFC
1FF1FC
0FF0FC
0FF0F8
0BF5F8
0BFFF4
07FFE0
03F440
07F400
07F400
03F400
027400
021400
015000
ENDCHAR
STARTCHAR ydieresis
ENCODING 255
SWIDTH 604 0
DWIDTH 15 0
BBX 13 27 1 -2
BITMAP
1AA0AF80
2FF0FFC0
2FF0FF80
2FF0FFC0
2FF0FFC0
1AA0AA40
00000000
56409000
BFD1FE40
1FE2FF00
07F7FC00
03FBF400
01FFE000
00FFD000
00BFC000
00BFC000
007FC000
003F8000
003F8000
002F8000
002F8000
002F8000
002F8000
002F4000
002F0000
002E0000
00100000
ENDCHAR
STARTCHAR Amacron
ENCODING 256
SWIDTH 494 0
DWIDTH 12 0
BBX 11 27 0 -5
BITMAP
0FEAA0
1FFFE0
0BFFE0
000000
055540
6FFFF8
0BFFF0
07FFD0
07FFD0
07FFC0
07FFC0
07FFC0
07FFC0
07EFC0
07DFC0
07DBC0
0BCBC0
07EF80
0BFFC0
0BFF80
07FF80
07DB40
078B40
064700
010200
000100
000400
ENDCHAR
STARTCHAR amacron
ENCODING 257
SWIDTH 479 0
DWIDTH 12 0
BBX 12 25 0 -2
BITMAP
0BEAB0
0FFFF0
0AFFB0
000000
000000
5ABEBD
3FFFF4
0FFFF0
0BFFE0
07FFE0
07FFE0
07FFE0
0BFFE0
07FFD0
07FFD0
07EBE0
0BEBE0
0BD7E0
0BD7E0
0BEFE0
0BFFD0
0BEFD0
0BD7D0
0BC3D0
078180
ENDCHAR
STARTCHAR Abreve
ENCODING 258
SWIDTH 494 0
DWIDTH 12 0
BBX 12 31 0 -5
BITMAP
0BD065
07D0BD
03F5FD
03FFF8
01BFF4
0012E0
000110
000000
055540
6FFFF8
0BFFF0
07FFD0
07FFD0
07FFC0
07FFC0
07FFC0
07FFC0
07EFC0
07DFC0
07DBC0
0BCBC0
07EF80
0BFFC0
0BFF80
07FF80
07DB40
078B40
064700
010200
000100
000400
ENDCHAR
STARTCHAR abreve
ENCODING 259
SWIDTH 479 0
DWIDTH 12 0
BBX 12 28 0 -2
BITMAP
0BD055
07D0BD
03F5FD
03FFF8
01BFF4
0012E0
000110
000000
5ABEBD
3FFFF4
0FFFF0
0BFFE0
07FFE0
07FFE0
07FFE0
0BFFE0
07FFD0
07FFD0
07EBE0
0BEBE0
0BD7E0
0BD7E0
0BEFE0
0BFFD0
0BEFD0
0BD7D0
0BC3D0
078180
ENDCHAR
STARTCHAR Aogonek
ENCODING 260
SWIDTH 494 0
DWIDTH 12 0
BBX 12 28 0 -10
BITMAP
055540
6FFFF8
0BFFF0
07FFD0
07FFD0
07FFC0
07FFC0
07FFC0
07FFC0
07EFC0
07DFC0
07DBC0
0BCBC0
07EF80
0BFFC0
0BFF80
07FF80
07DB40
078B40
065F00
012F00
002E00
003E00
003F00
002F80
002FFD
000FFD
0002FD
ENDCHAR
STARTCHAR aogonek
ENCODING 261
SWIDTH 479 0
DWIDTH 12 0
BBX 13 27 0 -9
BITMAP
5ABEBD00
3FFFF400
0FFFF000
0BFFE000
07FFE000
07FFE000
07FFE000
0BFFE000
07FFD000
07FFD000
07EBE000
0BEBE000
0BD7E000
0BD7E000
0BEFE000
0BFFD000
0BEFD000
0BD7D000
0BC3D000
0787C000
0007C000
000BC000
0007C000
0007F940
0003FF40
0001FF40
00001A00
ENDCHAR
STARTCHAR Cacute
ENCODING 262
SWIDTH 504 0
DWIDTH 12 0
BBX 13 28 0 -3
BITMAP
00001C00
00007D00
0002FF40
001BFF80
002FE400
00140000
00000000
00AA8000
07FFE400
1FFFF800
3FFFFD00
7FFFFD00
7FFFFD00
7FFFFD00
7FFFFD00
3FE7FD00
3FD2FD00
2FD1A800
2FD00000
1FD00000
1FD19400
0FD3F400
0BE7F400
07FFF000
07FFD000
009B4000
00460000
00050000
ENDCHAR
STARTCHAR cacute
ENCODING 263
SWIDTH 534 0
DWIDTH 13 0
BBX 14 26 0 -1
BITMAP
00000A00
00003F00
0001FF80
000BFF90
001FE400
00090000
00000000
006F9000
03FFF400
1FFFFE00
3FFFFF40
7FFFFF00
7FFFFF40
7FFFFF40
3FFFFF00
3FF6FF00
2FF0FF00
1FF0BE00
1FE00000
1FE00000
0FF09000
0BF1F800
0BF6F800
03FFF400
02FFE000
016AC000
ENDCHAR
STARTCHAR Ccircumflex
ENCODING 264
SWIDTH 504 0
DWIDTH 12 0
BBX 12 30 0 -3
BITMAP
00FF80
01FFD0
03FFE0
07FFF4
0BE2F8
1F80FD
2E007E
1C001C
000000
00AA80
07FFE4
1FFFF8
3FFFFD
7FFFFD
7FFFFD
7FFFFD
7FFFFD
3FE7FD
3FD2FD
2FD1A8
2FD000
1FD000
1FD194
0FD3F4
0BE7F4
07FFF0
07FFD0
009B40
004600
000500
ENDCHAR
STARTCHAR ccircumflex
ENCODING 265
SWIDTH 534 0
DWIDTH 13 0
BBX 13 29 0 -1
BITMAP
007FD000
00BFF000
00FFF800
02FFFC00
03F5FE00
07D07F00
0F801F40
0A000A00
00000000
00000000
006F9000
03FFF400
1FFFFE00
3FFFFF40
7FFFFF00
7FFFFF40
7FFFFF40
3FFFFF00
3FF6FF00
2FF0FF00
1FF0BE00
1FE00000
1FE00000
0FF09000
0BF1F800
0BF6F800
03FFF400
02FFE000
016AC000
ENDCHAR
STARTCHAR Cdotaccent
ENCODING 266
SWIDTH 504 0
DWIDTH 12 0
BBX 12 30 0 -3
BITMAP
01AB90
02FFD0
02FFD0
02FFE0
01FFE0
01FFD0
01FFD0
015040
000000
00AA80
07FFE4
1FFFF8
3FFFFD
7FFFFD
7FFFFD
7FFFFD
7FFFFD
3FE7FD
3FD2FD
2FD1A8
2FD000
1FD000
1FD194
0FD3F4
0BE7F4
07FFF0
07FFD0
009B40
004600
000500
ENDCHAR
STARTCHAR cdotaccent
ENCODING 267
SWIDTH 534 0
DWIDTH 13 0
BBX 13 28 0 -1
BITMAP
01ABA000
01FFF000
00FFF000
00FFF000
00FFF000
00FFF000
00BFF000
00545000
00000000
006F9000
03FFF400
1FFFFE00
3FFFFF40
7FFFFF00
7FFFFF40
7FFFFF40
3FFFFF00
3FF6FF00
2FF0FF00
1FF0BE00
1FE00000
1FE00000
0FF09000
0BF1F800
0BF6F800
03FFF400
02FFE000
016AC000
ENDCHAR
STARTCHAR Ccaron
ENCODING 268
SWIDTH 504 0
DWIDTH 12 0
BBX 12 31 0 -3
BITMAP
040010
2E0078
3F40FD
1FC2FC
0FE7F8
0BFFF0
03FFD0
02FFC0
01FF40
000000
00AA80
07FFE4
1FFFF8
3FFFFD
7FFFFD
7FFFFD
7FFFFD
7FFFFD
3FE7FD
3FD2FD
2FD1A8
2FD000
1FD000
1FD194
0FD3F4
0BE7F4
07FFF0
07FFD0
009B40
004600
000500
ENDCHAR
STARTCHAR ccaron
ENCODING 269
SWIDTH 534 0
DWIDTH 13 0
BBX 13 30 0 -1
BITMAP
01000400
0B802E00
0FD07F40
0BE0BF00
07F5FD00
02FFF800
01FFF400
00FFE000
007FD000
00000000
00000000
006F9000
03FFF400
1FFFFE00
3FFFFF40
7FFFFF00
7FFFFF40
7FFFFF40
3FFFFF00
3FF6FF00
2FF0FF00
1FF0BE00
1FE00000
1FE00000
0FF09000
0BF1F800
0BF6F800
03FFF400
02FFE000
016AC000
ENDCHAR
STARTCHAR Dcaron
ENCODING 270
SWIDTH 522 0
DWIDTH 13 0
BBX 12 32 1 -4
BITMAP
040010
2E0078
2F80FE
1FC2FC
0FE7F8
07FFF0
03FFE0
02FFC0
00FF80
000000
005640
BFFFD0
FFFFF4
BFFFF8
3FFFFC
3FFFFC
2FFFFC
2FFFFC
2FE2F8
1FD1F8
1FD1F4
1FD1F0
0FD1F0
0FD2E0
0BD3E0
0BFFE0
0BFFD0
0A6F80
092E00
042800
042000
001000
ENDCHAR
STARTCHAR dcaron
ENCODING 271
SWIDTH 522 0
DWIDTH 13 0
BBX 12 32 1 -4
BITMAP
040010
2E0078
2F80FE
1FC2FC
0FE7F8
07FFF0
03FFE0
02FFC0
00FF80
000000
005640
BFFFD0
FFFFF4
BFFFF8
3FFFFC
3FFFFC
2FFFFC
2FFFFC
2FE2F8
1FD1F8
1FD1F4
1FD1F0
0FD1F0
0FD2E0
0BD3E0
0BFFE0
0BFFD0
0A6F80
092E00
042800
042000
001000
ENDCHAR
STARTCHAR Eth.dup2
ENCODING 272
SWIDTH 530 0
DWIDTH 13 0
BBX 12 22 1 -4
BITMAP
005A90
2FFFF4
3FFFFD
2FFFFE
1FFFFF
0FFFFF
0BFFFF
0BFFFF
0BF8BF
07F4BE
ABF97D
AFFD7C
07F4BC
03F4B8
03F4F4
02FFF4
02FFF4
02DBE0
024B40
020900
000800
000400
ENDCHAR
STARTCHAR Emacron
ENCODING 274
SWIDTH 570 0
DWIDTH 14 0
BBX 12 23 1 -1
BITMAP
1FEAA0
1FFFE0
1BFFE0
000000
5AAA50
FFFFFE
7FFFFC
2FFFFC
2FFFF8
2FFFF4
2FFFF0
2FFFE0
2FD190
1FD000
1FFF40
1FFF40
0FFF40
0FD500
0FD000
0BFF80
0BFF80
09BE80
087440
ENDCHAR
STARTCHAR emacron
ENCODING 275
SWIDTH 632 0
DWIDTH 15 0
BBX 15 24 0 -2
BITMAP
02FAAD00
02FFFD00
01BFED00
00000000
016AA540
6FFFFFF4
2FFFFFE0
0FFFFFC0
0BFFFF80
0BFFFF80
07FFFF40
07FFFF40
03FD5B00
03FD0000
02FE5400
02FFFC00
01FFFC00
01FFF800
01FD0400
00FD5400
00FFFD00
00BFFC00
0053A800
00000400
ENDCHAR
STARTCHAR Ebreve
ENCODING 276
SWIDTH 570 0
DWIDTH 14 0
BBX 12 27 1 -1
BITMAP
0BD055
07D0BD
03F5FC
03FFF8
01BFF4
0022E0
000110
000000
5AAA50
FFFFFE
7FFFFC
2FFFFC
2FFFF8
2FFFF4
2FFFF0
2FFFE0
2FD190
1FD000
1FFF40
1FFF40
0FFF40
0FD500
0FD000
0BFF80
0BFF80
09BE80
087440
ENDCHAR
STARTCHAR ebreve
ENCODING 277
SWIDTH 632 0
DWIDTH 15 0
BBX 15 28 0 -2
BITMAP
007D0250
007E07E0
003F5FD0
002FFFC0
001BFF40
00016E00
00000500
00000000
016AA540
6FFFFFF4
2FFFFFE0
0FFFFFC0
0BFFFF80
0BFFFF80
07FFFF40
07FFFF40
03FD5B00
03FD0000
02FE5400
02FFFC00
01FFFC00
01FFF800
01FD0400
00FD5400
00FFFD00
00BFFC00
0053A800
00000400
ENDCHAR
STARTCHAR Edotaccent
ENCODING 278
SWIDTH 570 0
DWIDTH 14 0
BBX 12 28 1 -1
BITMAP
06AE80
07FF80
07FF80
07FFC0
03FFC0
03FFC0
03FF80
025100
000000
5AAA50
FFFFFE
7FFFFC
2FFFFC
2FFFF8
2FFFF4
2FFFF0
2FFFE0
2FD190
1FD000
1FFF40
1FFF40
0FFF40
0FD500
0FD000
0BFF80
0BFF80
09BE80
087440
ENDCHAR
STARTCHAR edotaccent
ENCODING 279
SWIDTH 632 0
DWIDTH 15 0
BBX 15 29 0 -2
BITMAP
006AE400
00BFF400
00BFF400
00BFF400
007FF400
007FF400
007FF400
00541000
00000000
016AA540
6FFFFFF4
2FFFFFE0
0FFFFFC0
0BFFFF80
0BFFFF80
07FFFF40
07FFFF40
03FD5B00
03FD0000
02FE5400
02FFFC00
01FFFC00
01FFF800
01FD0400
00FD5400
00FFFD00
00BFFC00
0053A800
00000400
ENDCHAR
STARTCHAR Eogonek
ENCODING 280
SWIDTH 513 0
DWIDTH 12 0
BBX 12 26 1 -8
BITMAP
5AAA50
FFFFFE
7FFFFC
2FFFFC
2FFFF8
2FFFF4
2FFFF0
2FFFE0
2FD190
1FD000
1FFF40
1FFF40
0FFF40
0FD500
0FD000
0BFF80
0BFF80
0BBF80
092F40
003E00
003D00
003E00
003F54
002FFD
000FFC
0001A8
ENDCHAR
STARTCHAR eogonek
ENCODING 281
SWIDTH 632 0
DWIDTH 15 0
BBX 15 26 0 -8
BITMAP
016AA540
6FFFFFF4
2FFFFFE0
0FFFFFC0
0BFFFF80
0BFFFF80
07FFFF40
07FFFF40
03FD5B00
03FD0000
02FE5400
02FFFC00
01FFFC00
01FFF800
01FD0400
00FD5400
00FFFD00
00BFFC00
0053F400
0002F000
0002E000
0002F000
0002F900
0001FFE0
0000BFD0
00001B90
ENDCHAR
STARTCHAR Ecaron
ENCODING 282
SWIDTH 570 0
DWIDTH 14 0
BBX 12 29 1 -1
BITMAP
040010
2E0078
2F80FE
1FC2FC
0FE7F8
07FFF0
03FFE0
02FFC0
00FF80
000000
5AAA50
FFFFFE
7FFFFC
2FFFFC
2FFFF8
2FFFF4
2FFFF0
2FFFE0
2FD190
1FD000
1FFF40
1FFF40
0FFF40
0FD500
0FD000
0BFF80
0BFF80
09BE80
087440
ENDCHAR
STARTCHAR ecaron
ENCODING 283
SWIDTH 632 0
DWIDTH 15 0
BBX 15 30 0 -2
BITMAP
00500100
01F003C0
02F80BE0
01FD1FD0
00BE3F80
007FFF40
003FFE00
001FFD00
000FB800
00000000
016AA540
6FFFFFF4
2FFFFFE0
0FFFFFC0
0BFFFF80
0BFFFF80
07FFFF40
07FFFF40
03FD5B00
03FD0000
02FE5400
02FFFC00
01FFFC00
01FFF800
01FD0400
00FD5400
00FFFD00
00BFFC00
0053A800
00000400
ENDCHAR
STARTCHAR Gcircumflex
ENCODING 284
SWIDTH 499 0
DWIDTH 12 0
BBX 12 30 0 -3
BITMAP
02FF00
03FF80
07FFD0
0FFFE0
1FC7F4
2F42F8
7D00BC
640024
000000
006900
07FFD0
2FFFF8
3FFFFC
3FFFFD
3FFFFD
3FFFFD
3FFFFD
2FCBFC
2FC3FC
1F82BC
1F8550
1FCBF8
1FCBFC
0FD6FC
0FE2F8
0BFFF8
07FFF4
01AFD0
005440
004000
ENDCHAR
STARTCHAR gcircumflex
ENCODING 285
SWIDTH 546 0
DWIDTH 13 0
BBX 13 29 0 -2
BITMAP
00FF8000
02FFC000
03FFE000
07FFF000
0FD3F800
1F81FD00
2E007E00
28001800
00000000
01654000
07FFF400
2FFFFD00
3FFFFF00
7FFFFF40
7FFFFF80
3FFFFF80
3FFFFF80
3FE7FF40
2FE1FF00
1FD0FF00
1FD00500
0FD3E500
0BE3FF00
0BF3FE00
07F4BE00
07FEFE00
03FFFE00
01FFFD00
005A5400
ENDCHAR
STARTCHAR Gbreve
ENCODING 286
SWIDTH 499 0
DWIDTH 12 0
BBX 11 29 1 -3
BITMAP
7E0250
3E03F0
2F9BE0
1FFFD0
0AFF80
015E40
000440
000000
01A400
1FFF40
BFFFE0
FFFFF0
FFFFF4
FFFFF4
FFFFF4
FFFFF4
BF2FF0
BF0FF0
7E0AF0
7E1540
7F2FE0
7F2FF0
3F5BF0
3F8BE0
2FFFE0
1FFFD0
06BF40
015100
010000
ENDCHAR
STARTCHAR gbreve
ENCODING 287
SWIDTH 546 0
DWIDTH 13 0
BBX 13 28 0 -2
BITMAP
0BD05500
07D0BD00
03F5FC00
03FFF800
01BFF400
0022E000
00011000
00000000
01654000
07FFF400
2FFFFD00
3FFFFF00
7FFFFF40
7FFFFF80
3FFFFF80
3FFFFF80
3FE7FF40
2FE1FF00
1FD0FF00
1FD00500
0FD3E500
0BE3FF00
0BF3FE00
07F4BE00
07FEFE00
03FFFE00
01FFFD00
005A5400
ENDCHAR
STARTCHAR Gdotaccent
ENCODING 288
SWIDTH 499 0
DWIDTH 12 0
BBX 11 30 1 -3
BITMAP
1ABA00
1FFF00
1FFF00
0FFF00
0FFF00
0FFF00
0FFF00
054400
000000
01A400
1FFF40
BFFFE0
FFFFF0
FFFFF4
FFFFF4
FFFFF4
FFFFF4
BF2FF0
BF0FF0
7E0AF0
7E1540
7F2FE0
7F2FF0
3F5BF0
3F8BE0
2FFFE0
1FFFD0
06BF40
015100
010000
ENDCHAR
STARTCHAR gdotaccent
ENCODING 289
SWIDTH 546 0
DWIDTH 13 0
BBX 13 29 0 -2
BITMAP
01AB9000
03FFD000
02FFD000
02FFD000
02FFD000
01FFD000
01FFD000
01504000
00000000
01654000
07FFF400
2FFFFD00
3FFFFF00
7FFFFF40
7FFFFF80
3FFFFF80
3FFFFF80
3FE7FF40
2FE1FF00
1FD0FF00
1FD00500
0FD3E500
0BE3FF00
0BF3FE00
07F4BE00
07FEFE00
03FFFE00
01FFFD00
005A5400
ENDCHAR
STARTCHAR Gcommaaccent
ENCODING 290
SWIDTH 499 0
DWIDTH 12 0
BBX 11 33 1 -15
BITMAP
01A400
1FFF40
BFFFE0
FFFFF0
FFFFF4
FFFFF4
FFFFF4
FFFFF4
BF2FF0
BF0FF0
7E0AF0
7E1540
7F2FE0
7F2FF0
3F5BF0
3F8BE0
2FFFE0
1FFFD0
06BF40
015100
010000
004000
03FF80
03FF80
03FF80
03FF80
03FF80
02AF80
000F80
000F40
001F40
001F00
000400
ENDCHAR
STARTCHAR Hcircumflex
ENCODING 292
SWIDTH 726 0
DWIDTH 17 0
BBX 17 32 0 -5
BITMAP
000FF80000
001FFD0000
003FFE0000
007FFF4000
00BE3F8000
01F81FD000
02E007E000
0180018000
0000000000
005A1A9400
6BFE1FFF80
1FFD0FFF00
0FFD0BFD00
0BFD0FFC00
0BFD1FF800
07FC1FF400
07FC1FF400
03FC1FF000
03FC1FE000
02FFFFE000
02FFFFD000
01FFFFD000
01FD2FD000
01FD2FC000
00FD2F8000
00FD3F8000
00FD3F8000
00942F4000
0000054000
0000000000
0000100000
0000500000
ENDCHAR
STARTCHAR hcircumflex
ENCODING 293
SWIDTH 730 0
DWIDTH 18 0
BBX 16 30 1 -2
BITMAP
003FE000
007FF400
00BFF800
01FFFD00
02F8BF00
03E03F40
0B801F80
07000700
00000000
00000000
01A83AA5
BFF43FFE
3FF42FFC
2FF42FF8
2FF43FF0
2FF43FE0
1FF43FE0
1FF43FE0
0FF43FD0
0BF57FC0
0BFFFF80
07FFFF80
07FEFF40
07F4BF40
07F4BF00
03F4BF00
03F4BE00
03F4BE00
02007A00
00000100
ENDCHAR
STARTCHAR hbar
ENCODING 295
SWIDTH 704 0
DWIDTH 17 0
BBX 15 20 1 -2
BITMAP
01A86AA4
BFF4BFFC
3FF07FF4
2FF5BFF0
2FFFFFE0
2FFFFFD0
1FFFFFC0
1FFAFFC0
0FF07F80
0BF5BF40
0BFFFF00
07FFFF00
07FEFF00
07F4BF40
07F4BF00
03F4BF00
03F4BE00
03F4BE00
02007A00
00000100
ENDCHAR
STARTCHAR Itilde
ENCODING 296
SWIDTH 401 0
DWIDTH 10 0
BBX 11 26 -1 -1
BITMAP
000100
280BD0
FEBFF4
BFFFF8
3FFBF0
0A8040
000000
1AAAA0
0FFFD0
07FFC0
02FF80
01FFC0
01FF80
01FF80
01FF40
01FF40
01FF00
00FF40
00FF40
00FF00
00BF00
00BF00
00BF00
007E00
006B00
001900
ENDCHAR
STARTCHAR itilde
ENCODING 297
SWIDTH 411 0
DWIDTH 10 0
BBX 11 26 -1 -1
BITMAP
000100
2C0BD0
FEBFF4
BFFFFC
2FFAF4
0A8040
000000
16AA50
0FFFE0
07FFD0
01FFC0
00FFC0
00FF80
00FF40
01FF40
00FF00
00FF00
00FF00
00BF40
00BF00
007E00
007E00
007E00
007E00
003E00
000500
ENDCHAR
STARTCHAR Imacron
ENCODING 298
SWIDTH 401 0
DWIDTH 10 0
BBX 9 23 0 -1
BITMAP
7EAA80
7FFF80
6FFF80
000000
6AAA80
3FFF40
1FFF00
0BFE00
07FF00
07FE00
07FE00
07FD00
07FD00
07FC00
03FD00
03FD00
03FC00
02FC00
02FC00
02FC00
01F800
01AC00
006400
ENDCHAR
STARTCHAR imacron
ENCODING 299
SWIDTH 411 0
DWIDTH 10 0
BBX 9 24 0 -1
BITMAP
7FAA80
7FFF80
6FFF80
000000
000000
5AA940
3FFF80
1FFF40
07FF00
03FF00
03FE00
03FD00
07FD00
03FC00
03FC00
03FC00
02FD00
02FC00
01F800
01F800
01F800
01F800
00F800
001400
ENDCHAR
STARTCHAR Ibreve
ENCODING 300
SWIDTH 401 0
DWIDTH 10 0
BBX 10 27 0 -1
BITMAP
7E0250
3E07E0
2F5BD0
2FFFC0
0BFF80
015E40
000500
000000
6AAA80
3FFF40
1FFF00
0BFE00
07FF00
07FE00
07FE00
07FD00
07FD00
07FC00
03FD00
03FD00
03FC00
02FC00
02FC00
02FC00
01F800
01AC00
006400
ENDCHAR
STARTCHAR ibreve
ENCODING 301
SWIDTH 411 0
DWIDTH 10 0
BBX 10 27 0 -1
BITMAP
7E0250
3E07E0
2F5BD0
2FFFC0
0BFF80
015E00
000500
000000
5AA940
3FFF80
1FFF40
07FF00
03FF00
03FE00
03FD00
07FD00
03FC00
03FC00
03FC00
02FD00
02FC00
01F800
01F800
01F800
01F800
00F800
001400
ENDCHAR
STARTCHAR Iogonek
ENCODING 302
SWIDTH 401 0
DWIDTH 10 0
BBX 9 28 0 -10
BITMAP
6AAA80
3FFF40
1FFF00
0BFE00
07FF00
07FE00
07FE00
07FD00
07FD00
07FC00
03FD00
03FD00
03FC00
02FC00
02FC00
02FC00
01F800
01FC00
02F400
02E000
03D000
03D000
07D000
07E000
03FE80
02FFC0
00BF80
000500
ENDCHAR
STARTCHAR iogonek
ENCODING 303
SWIDTH 412 0
DWIDTH 10 0
BBX 9 27 0 -9
BITMAP
5AA940
3FFF80
1FFF40
07FF00
03FF00
03FE00
03FD00
07FD00
03FC00
03FC00
03FC00
02FD00
02FC00
01F800
01F800
01F800
01F800
01F800
02F400
02E000
03D000
03D000
07D000
03F500
02FFC0
01FFC0
002F80
ENDCHAR
STARTCHAR Idotaccent
ENCODING 304
SWIDTH 401 0
DWIDTH 10 0
BBX 9 28 0 -1
BITMAP
1AB900
2FFE00
1FFE00
1FFE00
1FFE00
1FFE00
0FFE00
094400
000000
6AAA80
3FFF40
1FFF00
0BFE00
07FF00
07FE00
07FE00
07FD00
07FD00
07FC00
03FD00
03FD00
03FC00
02FC00
02FC00
02FC00
01F800
01AC00
006400
ENDCHAR
STARTCHAR dotlessi
ENCODING 305
SWIDTH 411 0
DWIDTH 10 0
BBX 9 19 0 -1
BITMAP
5AA940
3FFF80
1FFF40
07FF00
03FF00
03FE00
03FD00
07FD00
03FC00
03FC00
03FC00
02FD00
02FC00
01F800
01F800
01F800
01F800
00F800
001400
ENDCHAR
STARTCHAR IJ
ENCODING 306
SWIDTH 908 0
DWIDTH 22 0
BBX 21 19 0 -1
BITMAP
6AAA8006A500
3FFF8007FF80
1FFF4003FF40
0BFF0002FF00
07FF4001FE00
07FF0002FD00
07FF0002FD00
07FF0002FC00
07FE0002FC00
07FD0002FC00
03FE0002F800
03FE0002F800
03FD06A2F400
02FD0BE2F400
02FD07E3F000
01FD07FBF000
01FD03FFE000
00AD01FBD000
005900160000
ENDCHAR
STARTCHAR ij
ENCODING 307
SWIDTH 901 0
DWIDTH 22 0
BBX 21 19 0 -1
BITMAP
5AAA401A9400
3FFFC00FFF80
1FFF800BFF00
07FF4007FF00
03FF0003FE00
03FF0003FD00
03FE0003FD00
07FE0003FD00
07FD0003FD00
03FD0003FD00
03FD0002FD00
02FE0002FC00
02FD06A2FC00
01FD0BE2FC00
01FC07F2F800
01FC03FBF800
01FC02FFF400
00EC01BFF000
000800066000
ENDCHAR
STARTCHAR Jcircumflex
ENCODING 308
SWIDTH 455 0
DWIDTH 11 0
BBX 13 28 -1 -1
BITMAP
002FF000
007FF400
00BFFC00
00FFFE00
02F8BF00
03F02F80
07C00FC0
07400340
00000000
002A5000
003FF800
002FF400
001FF400
001FF000
001FE000
001FD000
002FD000
002FD000
002FC000
001FC000
002F8000
2A2F8000
7E2F8000
7E2F4000
7F7F4000
3FFE0000
1BBE0000
01210000
ENDCHAR
STARTCHAR jcircumflex
ENCODING 309
SWIDTH 458 0
DWIDTH 11 0
BBX 13 28 -1 -1
BITMAP
002FF000
007FF800
00BFFC00
00FFFE00
02F8BF00
03F02F80
07C00FC0
07400340
00000000
00AA4000
00BFF800
007FF800
003FF400
002FF000
002FF000
002FF000
002FF000
002FE000
002FE000
001FE000
001FD000
2B1FD000
7F1FD000
3F5FD000
3FFFC000
1FFF8000
0BFF4000
00594000
ENDCHAR
STARTCHAR Kcommaaccent
ENCODING 310
SWIDTH 580 0
DWIDTH 14 0
BBX 13 32 0 -14
BITMAP
5A546400
7FF8BFC0
1FF8FF00
0BF8F800
07F9F400
03FAF000
02FFE000
02FFE000
02FFE000
02FFE000
01FFE000
01FFE000
00FFF000
00FFF000
00FEF400
00F4F400
00B8B800
00B8B800
00445400
00000000
00040000
003FF400
003FF800
003FF800
007FF800
007FF800
002AF800
0000F400
0001F400
0001F000
0001F000
00004000
ENDCHAR
STARTCHAR kcommaaccent
ENCODING 311
SWIDTH 636 0
DWIDTH 15 0
BBX 15 31 0 -13
BITMAP
05551A90
7FFD3FE4
1FFD7F80
0BFDBE00
07FDBC00
03FDFC00
02FDF800
01FEF400
01FEF000
01FFE000
01FFE000
00FFE000
00BFF000
00BFF400
007EF800
007D7D00
007D3E00
007D2F00
00151900
00000000
00010000
001FFD00
001FFD00
001FFD00
001FFD00
001FFD00
001AFD00
00007C00
00007C00
0000BC00
0000B800
ENDCHAR
STARTCHAR kgreenlandic
ENCODING 312
SWIDTH 636 0
DWIDTH 15 0
BBX 15 19 0 -1
BITMAP
05551A90
7FFD3FE4
1FFD7F80
0BFDBE00
07FDBC00
03FDFC00
02FDF800
01FEF400
01FEF000
01FFE000
01FFE000
00FFE000
00BFF000
00BFF400
007EF800
007D7D00
007D3E00
007D2F00
00151900
ENDCHAR
STARTCHAR Lacute
ENCODING 313
SWIDTH 416 0
DWIDTH 10 0
BBX 13 27 0 -2
BITMAP
00001C00
00007D00
0002FF40
001BFF80
002FE400
00140000
00000000
6AAA4000
2FFD0000
1FFC0000
1FF40000
0FF80000
0FF80000
0FF40000
0FF40000
0BF40000
0BF40000
0BF40000
07F40000
07F40000
07F40000
03F90400
03FFF400
02FFF400
02FBF400
0056B000
00041000
ENDCHAR
STARTCHAR lacute
ENCODING 314
SWIDTH 438 0
DWIDTH 11 0
BBX 14 27 0 -2
BITMAP
00000D00
00007E00
0001FF40
000BFF90
001FE400
00090000
00000000
06AAE000
6FFF4000
0FFE0000
0FFD0000
0BFD0000
0BFD0000
07FC0000
07FD0000
03FD0000
02FC0000
02FC0000
02FC0000
02FC0000
01FC0000
01FE5400
01FFFC00
00FFF800
00FEF400
0084B400
00401000
ENDCHAR
STARTCHAR Lcommaaccent
ENCODING 315
SWIDTH 416 0
DWIDTH 10 0
BBX 11 32 0 -14
BITMAP
6AAA40
2FFD00
1FFC00
1FF400
0FF800
0FF800
0FF400
0FF400
0BF400
0BF400
0BF400
07F400
07F400
07F400
03F904
03FFF4
02FFF4
02FBF4
0056B0
000410
000000
004000
03FF40
03FF40
07FF80
07FF80
07FF40
02AF40
000F40
001F40
001F00
001F00
ENDCHAR
STARTCHAR lcommaaccent
ENCODING 316
SWIDTH 438 0
DWIDTH 11 0
BBX 11 32 0 -14
BITMAP
06AAE0
6FFF40
0FFE00
0FFD00
0BFD00
0BFD00
07FC00
07FD00
03FD00
02FC00
02FC00
02FC00
02FC00
01FC00
01FE54
01FFFC
00FFF8
00FEF4
0084B4
004010
004000
02FF80
02FF80
02FFC0
03FFC0
03FFC0
02AFC0
000B80
000F80
000F40
000F40
000400
ENDCHAR
STARTCHAR Lcaron
ENCODING 317
SWIDTH 714 0
DWIDTH 17 0
BBX 17 20 0 -2
BITMAP
6AAA410000
2FFD0FFF00
1FFC0FFF00
1FF40FFF40
0FF80FFF40
0FF80FFF40
0FF40FFF40
0FF40EFF40
0BF4001F00
0BF4001F00
0BF8002E00
07F4002E00
07F4001500
07F4000000
03F9040000
03FFF40000
02FFF40000
02FBF40000
0056B00000
0004100000
ENDCHAR
STARTCHAR lcaron
ENCODING 318
SWIDTH 782 0
DWIDTH 19 0
BBX 18 21 0 -2
BITMAP
0000001000
06AAE1FFE0
6FFF41FFE0
0FFE01FFF0
0FFD01FFF0
0BFD01FFE0
0BFD01FFE0
07FC01EFE0
07FD0002E0
03FD0003E0
02FC0003D0
02FC0007D0
02FC000140
02FC000000
01FC000000
01FE540000
01FFFC0000
00FFF80000
00FEF40000
0084B40000
0040100000
ENDCHAR
STARTCHAR Ldotaccent
ENCODING 319
SWIDTH 567 0
DWIDTH 14 0
BBX 15 20 0 -2
BITMAP
6AAA4000
2FFD0000
1FFC0000
1FF40040
0FF8BFF8
0FF8BFF8
0FF47FF8
0FF47FF8
0BF47FF8
0BF43FF8
0BF43EB4
07F40000
07F40000
07F40000
03F90400
03FFF400
02FFF400
02FBF400
0056B000
00041000
ENDCHAR
STARTCHAR ldot
ENCODING 320
SWIDTH 660 0
DWIDTH 16 0
BBX 17 20 0 -2
BITMAP
06AAE00000
6FFF400000
0FFE000000
0FFD000000
0BFD000000
0BFD06AE40
07FC0BFF40
07FD0BFF40
03FD0BFF40
02FC07FF80
02FC07FF40
02FC07FF40
02FC054100
01FC000000
01FE540000
01FFFC0000
00FFF80000
00FEF40000
0084B40000
0040100000
ENDCHAR
STARTCHAR Lslash
ENCODING 321
SWIDTH 428 0
DWIDTH 10 0
BBX 11 20 0 -2
BITMAP
2AAA40
1FFD00
0FFC00
0FF400
0BF800
0BF874
0BFFF4
0BFFF8
6FFFFC
BFFFE8
7FFE40
3FF400
17F400
03F400
02F904
02FFF8
01FFF4
01FBF4
0056B0
000410
ENDCHAR
STARTCHAR lslash
ENCODING 322
SWIDTH 457 0
DWIDTH 11 0
BBX 12 20 0 -2
BITMAP
06AAE0
2FFF40
0BFF00
0BFD00
07FE04
07FE7D
07FFFD
07FFFE
1FFFFF
7FFFE4
3FFE40
2FFD00
1AFD00
01FD00
00FE54
00FFFC
00FFFC
00BEF8
0094B4
004010
ENDCHAR
STARTCHAR Nacute
ENCODING 323
SWIDTH 610 0
DWIDTH 15 0
BBX 15 29 1 -4
BITMAP
00000280
00000BC0
00007FE0
0001FFF4
0007F900
00024000
00000000
55529400
FFE2FF80
7FF1FF00
3FF5FD00
3FF9FD00
2FFDFD00
2FFEFC00
2FFFFC00
1FFFF800
1FFFF800
1FFFF800
0FFFF400
0BEFF400
0BEFF400
0BDFF400
07DBF400
07D7F000
07D3F000
07D2A000
05129000
01110000
01110000
ENDCHAR
STARTCHAR nacute
ENCODING 324
SWIDTH 664 0
DWIDTH 16 0
BBX 17 27 0 -2
BITMAP
0000003400
000001F800
000007FD00
00002FFE40
00007F9000
0000240000
0000000000
5AA9255500
3FFD2FFC00
2FFE1FF800
0FFF5FF000
0FFF5FE000
0FFFAFE000
0FFFEFD000
0BFFFFD000
0BFFFFC000
0BFFFFC000
07FFFF8000
07FFFF8000
03FBFF4000
03F7FF4000
03F6FF0000
02F5FF0000
02F5FE0000
02F4FD0000
01E4F80000
0040680000
ENDCHAR
STARTCHAR Ncommaaccent
ENCODING 325
SWIDTH 610 0
DWIDTH 15 0
BBX 13 34 1 -16
BITMAP
55529400
FFE2FF80
7FF1FF00
3FF5FD00
3FF9FD00
2FFDFD00
2FFEFC00
2FFFFC00
1FFFF800
1FFFF800
1FFFF800
0FFFF400
0BEFF400
0BEFF400
0BDFF400
07DBF400
07D7F000
07D3F000
07D2A000
05129000
01110000
01110000
00000000
00000000
007FF000
007FF400
007FF400
007FF400
00BFF400
006BF400
0001F000
0001F000
0002E000
0002E000
ENDCHAR
STARTCHAR ncommaaccent
ENCODING 326
SWIDTH 664 0
DWIDTH 16 0
BBX 16 33 0 -15
BITMAP
5AA92555
3FFD2FFC
2FFE1FF8
0FFF5FF0
0FFF5FE0
0FFFAFE0
0FFFEFD0
0BFFFFD0
0BFFFFC0
0BFFFFC0
07FFFF80
07FFFF80
03FBFF40
03F7FF40
03F6FF00
02F5FF00
02F5FE00
02F4FD00
01E4F800
00406800
00000000
00010000
000BFE00
000BFE00
000BFF00
000FFF00
000FFF00
000ABF00
00002E00
00003E00
00003D00
00003D00
00001000
ENDCHAR
STARTCHAR Ncaron
ENCODING 327
SWIDTH 610 0
DWIDTH 15 0
BBX 13 32 1 -4
BITMAP
01000400
1F403D00
2FC0BF00
0FD1FD00
0BF3FC00
07FFF400
02FFF000
01FFD000
00BBC000
00000000
55529400
FFE2FF80
7FF1FF00
3FF5FD00
3FF9FD00
2FFDFD00
2FFEFC00
2FFFFC00
1FFFF800
1FFFF800
1FFFF800
0FFFF400
0BEFF400
0BEFF400
0BDFF400
07DBF400
07D7F000
07D3F000
07D2A000
05129000
01110000
01110000
ENDCHAR
STARTCHAR ncaron
ENCODING 328
SWIDTH 664 0
DWIDTH 16 0
BBX 16 30 0 -2
BITMAP
00100140
01F403D0
02FC0BF0
00FD1FD0
00BF3FC0
007FFF40
002FFF00
001FFD00
000BBC00
00000000
5AA92555
3FFD2FFC
2FFE1FF8
0FFF5FF0
0FFF5FE0
0FFFAFE0
0FFFEFD0
0BFFFFD0
0BFFFFC0
0BFFFFC0
07FFFF80
07FFFF80
03FBFF40
03F7FF40
03F6FF00
02F5FF00
02F5FE00
02F4FD00
01E4F800
00406800
ENDCHAR
STARTCHAR Omacron
ENCODING 332
SWIDTH 504 0
DWIDTH 12 0
BBX 12 24 0 -2
BITMAP
1FEAA0
1FFFE0
1BFFE0
000000
006900
07FFE0
1FFFF8
3FFFFD
7FFFFD
7FFFFD
3FFFFD
3FFFFD
3FD7FD
2FC3FD
2FC3FD
1FC2FD
1FC2FC
1FC3F8
0FD3F8
0BEBF4
0BFFF0
02FFD0
009780
005640
ENDCHAR
STARTCHAR omacron
ENCODING 333
SWIDTH 545 0
DWIDTH 13 0
BBX 13 24 0 -2
BITMAP
0BEAB400
0BFFF400
0AFFB400
00000000
006A9000
07FFF800
1FFFFD00
3FFFFF40
7FFFFF40
7FFFFF40
3FFFFF80
3FFFFF40
3FE2FF80
2FD2FF40
2FD1FF40
1FD1FF00
1FD1FE00
0FD2FD00
0BE2FC00
0BF7FC00
07FFF800
02BFF000
0013A000
00011000
ENDCHAR
STARTCHAR Obreve
ENCODING 334
SWIDTH 504 0
DWIDTH 12 0
BBX 12 28 0 -2
BITMAP
0FC054
0BC0FC
07E5F8
07FFF4
02BFF0
0023A0
000110
000000
006900
07FFE0
1FFFF8
3FFFFD
7FFFFD
7FFFFD
3FFFFD
3FFFFD
3FD7FD
2FC3FD
2FC3FD
1FC2FD
1FC2FC
1FC3F8
0FD3F8
0BEBF4
0BFFF0
02FFD0
009780
005640
ENDCHAR
STARTCHAR obreve
ENCODING 335
SWIDTH 545 0
DWIDTH 13 0
BBX 13 28 0 -2
BITMAP
0BD05400
07D0BD00
07E5FC00
03FFF800
01BFF000
0022A000
00011000
00000000
006A9000
07FFF800
1FFFFD00
3FFFFF40
7FFFFF40
7FFFFF40
3FFFFF80
3FFFFF40
3FE2FF80
2FD2FF40
2FD1FF40
1FD1FF00
1FD1FE00
0FD2FD00
0BE2FC00
0BF7FC00
07FFF800
02BFF000
0013A000
00011000
ENDCHAR
STARTCHAR Ohungarumlaut
ENCODING 336
SWIDTH 504 0
DWIDTH 12 0
BBX 13 29 0 -2
BITMAP
02406000
03E0BA00
07F4FF40
0FE1FD00
1F83F400
2F07D000
7C0B4000
24060000
00000000
00690000
07FFE000
1FFFF800
3FFFFD00
7FFFFD00
7FFFFD00
3FFFFD00
3FFFFD00
3FD7FD00
2FC3FD00
2FC3FD00
1FC2FD00
1FC2FC00
1FC3F800
0FD3F800
0BEBF400
0BFFF000
02FFD000
00978000
00564000
ENDCHAR
STARTCHAR ohungarumlaut
ENCODING 337
SWIDTH 545 0
DWIDTH 13 0
BBX 13 29 0 -2
BITMAP
00802400
02F47E40
03FCBF80
07F4FE00
0BD1F800
1F42E000
2E038000
18020000
00000000
006A9000
07FFF800
1FFFFD00
3FFFFF40
7FFFFF40
7FFFFF40
3FFFFF80
3FFFFF40
3FE2FF80
2FD2FF40
2FD1FF40
1FD1FF00
1FD1FE00
0FD2FD00
0BE2FC00
0BF7FC00
07FFF800
02BFF000
0013A000
00011000
ENDCHAR
STARTCHAR OE
ENCODING 338
SWIDTH 789 0
DWIDTH 19 0
BBX 18 21 0 -3
BITMAP
00696AA540
07FFFFFFF0
1FFFFFFFD0
3FFFFFFFC0
7FFFFFFF80
7FFFFFFF40
3FFFFFFF00
3FFFFFFF00
3FD7FE1600
2FC3FE0000
2FC3FFF800
1FC2FFF800
1FC2FFF800
1FC3FE5400
0FD3FD0000
0BEBFFFC00
0BFFFFFC00
02FFE7E800
00A7968800
0056450400
0056050400
ENDCHAR
STARTCHAR oe
ENCODING 339
SWIDTH 778 0
DWIDTH 19 0
BBX 18 20 0 -2
BITMAP
006A5A9500
07FFFFFFE0
1FFFFFFFC0
3FFFFFFF80
7FFFFFFF40
7FFFFFFF00
3FFFFFFF00
3FFFFFFE00
2FE3FFAE00
2FD2FE0000
1FC2FE5000
1FC2FFF400
0FC2FFF400
0BD2FFF000
0BD3FC1000
0BF7FD5000
07FFFFF800
02BFFFF400
005797A400
0001400400
ENDCHAR
STARTCHAR Racute
ENCODING 340
SWIDTH 599 0
DWIDTH 14 0
BBX 15 27 0 -2
BITMAP
000001D0
000007E0
00001FF4
0000BFF8
0001FE40
00019000
00000000
016AA400
7FFFFE40
1FFFFFD0
0BFFFFE0
07FFFFF0
03FFFFE0
03FFFFE0
02FEBFE0
02FD1FE0
02FD1FD0
01FE6FD0
01FFFF80
00FFFF80
00BFFE00
00BD7F00
00BD3F40
007E3F40
007E3F40
00691F80
00040000
ENDCHAR
STARTCHAR racute
ENCODING 341
SWIDTH 616 0
DWIDTH 15 0
BBX 16 27 0 -2
BITMAP
000000A0
000002F0
00001FF8
00007FFD
0001FE40
00009000
00000000
016A9400
7FFFFF80
2FFFFFF0
0BFFFFF4
03FFFFF4
03FFFFF0
03FFFFF0
02FFBFE0
02FE1FE0
02FD1FD0
02FE2FD0
01FFFFC0
00FFFF80
00FFFE00
00FEBE00
00FD7E00
00FE7E00
00FD7E00
00F97E00
00400600
ENDCHAR
STARTCHAR Rcommaaccent
ENCODING 342
SWIDTH 599 0
DWIDTH 14 0
BBX 14 32 0 -14
BITMAP
016AA400
7FFFFE40
1FFFFFD0
0BFFFFE0
07FFFFF0
03FFFFE0
03FFFFE0
02FEBFE0
02FD1FE0
02FD1FD0
01FE6FD0
01FFFF80
00FFFF80
00BFFE00
00BD7F00
00BD3F40
007E3F40
007E3F40
00691F80
00040000
00040000
003FF800
003FF800
003FF800
003FF800
003FF800
002AF800
0000B800
0000F400
0001F400
0001F000
00004000
ENDCHAR
STARTCHAR rcommaaccent
ENCODING 343
SWIDTH 616 0
DWIDTH 15 0
BBX 15 32 0 -14
BITMAP
016A9400
7FFFFF80
2FFFFFF0
0BFFFFF4
03FFFFF4
03FFFFF0
03FFFFF0
02FFBFE0
02FE1FE0
02FD1FD0
02FE2FD0
01FFFFC0
00FFFF80
00FFFE00
00FEBE00
00FD7E00
00FE7E00
00FD7E00
00F97E00
00400600
00000000
00040000
002FFC00
002FFC00
002FFC00
002FFC00
002FFC00
001AFC00
00007C00
0000B800
0000F800
0000F400
ENDCHAR
STARTCHAR Rcaron
ENCODING 344
SWIDTH 599 0
DWIDTH 14 0
BBX 14 30 0 -2
BITMAP
00400100
02E00780
03F40FD0
02FC2FC0
00FD7F40
00BFFF00
007FFD00
002FFC00
001FF400
00000000
016AA400
7FFFFE40
1FFFFFD0
0BFFFFE0
07FFFFF0
03FFFFE0
03FFFFE0
02FEBFE0
02FD1FE0
02FD1FD0
01FE6FD0
01FFFF80
00FFFF80
00BFFE00
00BD7F00
00BD3F40
007E3F40
007E3F40
00691F80
00040000
ENDCHAR
STARTCHAR rcaron
ENCODING 345
SWIDTH 616 0
DWIDTH 15 0
BBX 15 30 0 -2
BITMAP
00400100
02E00B80
03F41FD0
02F83F80
01FD7F40
00BFFE00
007FFD00
003FF800
001FF400
00000000
016A9400
7FFFFF80
2FFFFFF0
0BFFFFF4
03FFFFF4
03FFFFF0
03FFFFF0
02FFBFE0
02FE1FE0
02FD1FD0
02FE2FD0
01FFFFC0
00FFFF80
00FFFE00
00FEBE00
00FD7E00
00FE7E00
00FD7E00
00F97E00
00400600
ENDCHAR
STARTCHAR Sacute
ENCODING 346
SWIDTH 504 0
DWIDTH 12 0
BBX 14 26 0 -1
BITMAP
00000700
00002F40
0000BFD0
0006FFE0
000BF900
00050000
00000000
001A4000
02FFE000
0FFFFC00
2FFFFE00
3FFFFD00
7FFFFD00
7FFFFD00
7FFFFD00
7FD3FD00
7FE16900
3FFE4000
1FFFE000
06FFF400
001BF800
1A93F800
2FE7F400
0FFFF000
0BFFD000
029A8000
ENDCHAR
STARTCHAR sacute
ENCODING 347
SWIDTH 481 0
DWIDTH 12 0
BBX 14 27 0 -2
BITMAP
00000B00
00002F40
0000BF80
0007FFD0
000FE500
00050000
00000000
006A4000
07FFD000
0FFFF800
2FFFFC00
3FFFFC00
7FFFF800
7FFFF800
7FFFF800
7FDBF800
3FD2B400
2FF90400
2FFF8000
0BFFD000
006FE000
054BE000
1FD7E000
0FFFD000
07FF8000
03FB4000
00400000
ENDCHAR
STARTCHAR Scircumflex
ENCODING 348
SWIDTH 504 0
DWIDTH 12 0
BBX 12 28 0 -1
BITMAP
00BFC0
00FFE0
02FFF0
03FFF8
07E2FC
0FC0BE
1F003F
1D000D
000000
001A40
02FFE0
0FFFFC
2FFFFE
3FFFFD
7FFFFD
7FFFFD
7FFFFD
7FD3FD
7FE169
3FFE40
1FFFE0
06FFF4
001BF8
1A93F8
2FE7F4
0FFFF0
0BFFD0
029A80
ENDCHAR
STARTCHAR scircumflex
ENCODING 349
SWIDTH 481 0
DWIDTH 12 0
BBX 12 29 0 -2
BITMAP
00FF80
02FFD0
03FFE0
07FFF4
0BD3F8
1F81FD
2E007E
280018
000000
006A40
07FFD0
0FFFF8
2FFFFC
3FFFFC
7FFFF8
7FFFF8
7FFFF8
7FDBF8
3FD2B4
2FF904
2FFF80
0BFFD0
006FE0
054BE0
1FD7E0
0FFFD0
07FF80
03FB40
004000
ENDCHAR
STARTCHAR Scedilla
ENCODING 350
SWIDTH 504 0
DWIDTH 12 0
BBX 12 26 0 -8
BITMAP
001A40
02FFE0
0FFFFC
2FFFFE
3FFFFD
7FFFFD
7FFFFD
7FFFFD
7FD3FD
7FE169
3FFE40
1FFFE0
06FFF4
001BF8
1A93F8
2FE7F4
0FFFF0
0BFFD0
02AF80
001E00
002C00
003FD0
0016D0
0002D0
002BD0
002BD0
ENDCHAR
STARTCHAR scedilla
ENCODING 351
SWIDTH 481 0
DWIDTH 12 0
BBX 11 26 0 -8
BITMAP
006A40
07FFD0
0FFFF8
2FFFFC
3FFFFC
7FFFF8
7FFFF8
7FFFF8
7FDBF8
3FD2B4
2FF904
2FFF80
0BFFD0
006FE0
054BE0
1FD7E0
0FFFD0
07FF80
03FF40
007800
00B000
00BF40
005B80
000740
006F40
00AF40
ENDCHAR
STARTCHAR Scaron
ENCODING 352
SWIDTH 503 0
DWIDTH 12 0
BBX 12 32 0 -1
BITMAP
000010
1E0078
3F40FD
1FC1FC
0FD3F8
0BFBF0
07FFE0
02FFC0
01FF80
000100
000000
000000
000000
001A40
02FFE0
0FFFFC
2FFFFE
3FFFFD
7FFFFD
7FFFFD
7FFFFD
7FD3FD
7FE169
3FFE40
1FFFD0
06FFF4
001BF8
1A93F8
2FE7F4
0FFFF0
0BFFD0
029A80
ENDCHAR
STARTCHAR scaron
ENCODING 353
SWIDTH 479 0
DWIDTH 12 0
BBX 11 32 0 -2
BITMAP
1D0074
7F00FC
3F42FC
1FC7F4
0FEFF0
0BFFD0
03FFC0
02FF40
005500
000000
000000
000000
006A40
07FFD0
0FFFF4
2FFFFC
3FFFFC
7FFFF8
7FFFF8
7FFFF8
7FDBF8
3FD2B4
3FF904
2FFF80
0BFFC0
006FD0
054BE0
1FD7D0
0FFFC0
07FF80
03FB40
004000
ENDCHAR
STARTCHAR Tcommaaccent
ENCODING 354
SWIDTH 622 0
DWIDTH 15 0
BBX 13 28 1 -10
BITMAP
15AA9000
FFFFFF80
7FFFFF80
3FFFFF00
2FFFFF00
2FFFFF00
1FFFFF00
1FFFFE00
1EBFDA00
003F8000
003F8000
003F8000
003F8000
003F8000
003F4000
003F8000
002F8000
002F8000
002F8000
003E4000
001F0000
001E0000
001D0000
002FE000
0016E000
0001E000
001BD000
002BD000
ENDCHAR
STARTCHAR tcommaaccent
ENCODING 355
SWIDTH 683 0
DWIDTH 16 0
BBX 16 28 0 -10
BITMAP
05AAAA90
7FFFFFFD
2FFFFFFC
0FFFFFF4
0BFFFFF0
07FFFFF0
07FFFFF0
03FFFFF0
03EBF9A0
0107F800
0007F800
0007FC00
0007F800
0003F800
0003F800
0003F800
0002F800
0002F800
0002F800
0002F800
0000F400
0001E000
0001D000
0002FE00
00016E00
00001E00
0001BD00
0002BD00
ENDCHAR
STARTCHAR Tcaron
ENCODING 356
SWIDTH 622 0
DWIDTH 15 0
BBX 13 31 1 -3
BITMAP
05001400
1F003D00
2F80BE00
0FD1FD00
0BF3FC00
07FFF400
02FFE000
01FFD000
00FB8000
00000000
15AA9000
FFFFFF80
7FFFFF80
3FFFFF00
2FFFFF00
2FFFFF00
1FFFFF00
1FFFFE00
1EBFDA00
003F8000
003F8000
003F8000
003F8000
003F8000
003F4000
003F8000
002F8000
002F8000
002F8000
003E4000
00100000
ENDCHAR
STARTCHAR tcaron
ENCODING 357
SWIDTH 622 0
DWIDTH 15 0
BBX 13 31 1 -3
BITMAP
01000400
0B801E00
0FD07F40
0BE0BF00
03F5FD00
02FFFC00
01FFF400
00BFE000
007FD000
00000000
15AA9000
FFFFFF80
7FFFFF80
3FFFFF00
2FFFFF00
2FFFFF00
1FFFFF00
1FFFFE00
1EBFDA00
003F8000
003F8000
003F8000
003F8000
003F8000
003F4000
003F8000
002F8000
002F8000
002F8000
003E4000
00100000
ENDCHAR
STARTCHAR Utilde
ENCODING 360
SWIDTH 637 0
DWIDTH 15 0
BBX 14 26 1 -1
BITMAP
00004000
0A02F400
3FAFFD00
2FFFFE00
0BFEFC00
02A01000
00000000
5AA05400
BFE0FFD0
3FE1FF80
3FE1FF40
3FE1FF40
2FF1FF00
2FF1FE00
1FF1FE00
1FE1FD00
1FE1FC00
0FD2FC00
1FE2FC00
0FE2F800
0FF2F800
0BF3F800
0BFFF400
07FFF000
02E69000
00804000
ENDCHAR
STARTCHAR utilde
ENCODING 361
SWIDTH 708 0
DWIDTH 17 0
BBX 16 25 1 0
BITMAP
00001000
0781BD00
1FEBFF00
0BFFFF80
03FFBE00
00A40400
00000000
16A41400
BFF82FF4
3FF83FFE
3FF83FF8
2FF83FF4
1FF83FF0
1FFC3FE0
0FFC3FD0
0FFC3FC0
0BF83FC0
0BF87FC0
0BF87F80
07FC7F80
07FC7F40
02FDBF40
02FFFF00
01FFFE00
0078A900
ENDCHAR
STARTCHAR Umacron
ENCODING 362
SWIDTH 637 0
DWIDTH 15 0
BBX 14 23 1 -1
BITMAP
07EAA800
07FFF800
06FFF800
00000000
5AA05400
BFE0FFD0
3FE1FF80
3FE1FF40
3FE1FF40
2FF1FF00
2FF1FE00
1FF1FE00
1FE1FD00
1FE1FC00
0FD2FC00
1FE2FC00
0FE2F800
0FF2F800
0BF3F800
0BFFF400
07FFF000
02E69000
00804000
ENDCHAR
STARTCHAR umacron
ENCODING 363
SWIDTH 708 0
DWIDTH 17 0
BBX 16 22 1 0
BITMAP
01FAAD00
02FFFD00
01BFFD00
00000000
16A41400
BFF82FF4
3FF83FFE
3FF83FF8
2FF83FF4
1FF83FF0
1FFC3FE0
0FFC3FD0
0FFC3FC0
0BF83FC0
0BF87FC0
0BF87F80
07FC7F80
07FC7F40
02FDBF40
02FFFF00
01FFFE00
0078A900
ENDCHAR
STARTCHAR Ubreve
ENCODING 364
SWIDTH 637 0
DWIDTH 15 0
BBX 14 27 1 -1
BITMAP
07E02500
03F03F00
02F9BE00
01FFFD00
00AFF800
0015E400
00004400
00000000
5AA05400
BFE0FFD0
3FE1FF80
3FE1FF40
3FE1FF40
2FF1FF00
2FF1FE00
1FF1FE00
1FE1FD00
1FE1FC00
0FD2FC00
1FE2FC00
0FE2F800
0FF2F800
0BF3F800
0BFFF400
07FFF000
02E69000
00804000
ENDCHAR
STARTCHAR ubreve
ENCODING 365
SWIDTH 708 0
DWIDTH 17 0
BBX 16 26 1 0
BITMAP
01F80940
00F80FC0
00BE6F80
007FFF40
002BFE00
00057900
00001500
00000000
16A41400
BFF82FF4
3FF83FFE
3FF83FF8
2FF83FF4
1FF83FF0
1FFC3FE0
0FFC3FD0
0FFC3FC0
0BF83FC0
0BF87FC0
0BF87F80
07FC7F80
07FC7F40
02FDBF40
02FFFF00
01FFFE00
0078A900
ENDCHAR
STARTCHAR Uring
ENCODING 366
SWIDTH 637 0
DWIDTH 15 0
BBX 14 27 1 -1
BITMAP
001A4000
00BFE000
01E5F000
00E0B000
00E0A000
00BFD000
005F4000
00000000
5AA05400
BFE0FFD0
3FE1FF80
3FE1FF40
3FE1FF40
2FF1FF00
2FF1FE00
1FF1FE00
1FE1FD00
1FE1FC00
0FD2FC00
1FE2FC00
0FE2F800
0FF2F800
0BF3F800
0BFFF400
07FFF000
02E69000
00804000
ENDCHAR
STARTCHAR uring
ENCODING 367
SWIDTH 708 0
DWIDTH 17 0
BBX 16 26 1 0
BITMAP
00069000
002FF800
003D7D00
00381D00
002C2800
002FF400
0007E000
00000000
16A41400
BFF82FF4
3FF83FFE
3FF83FF8
2FF83FF4
1FF83FF0
1FFC3FE0
0FFC3FD0
0FFC3FC0
0BF83FC0
0BF87FC0
0BF87F80
07FC7F80
07FC7F40
02FDBF40
02FFFF00
01FFFE00
0078A900
ENDCHAR
STARTCHAR Uhungarumlaut
ENCODING 368
SWIDTH 637 0
DWIDTH 15 0
BBX 14 28 1 -1
BITMAP
00901400
01F43E40
02FD7FC0
03F8BF00
07E0FD00
0F81F400
1E02D000
18024000
00000000
5AA05400
BFE0FFD0
3FE1FF80
3FE1FF40
3FE1FF40
2FF1FF00
2FF1FE00
1FF1FE00
1FE1FD00
1FE1FC00
0FD2FC00
1FE2FC00
0FE2F800
0FF2F800
0BF3F800
0BFFF400
07FFF000
02E69000
00804000
ENDCHAR
STARTCHAR uhungarumlaut
ENCODING 369
SWIDTH 708 0
DWIDTH 17 0
BBX 16 27 1 0
BITMAP
00240900
007D0F90
00BF1FE0
00FD2F80
02F83F00
03E0BC00
0B80F000
06009000
00000000
16A41400
BFF82FF4
3FF83FFE
3FF83FF8
2FF83FF4
1FF83FF0
1FFC3FE0
0FFC3FD0
0FFC3FC0
0BF83FC0
0BF87FC0
0BF87F80
07FC7F80
07FC7F40
02FDBF40
02FFFF00
01FFFE00
0078A900
ENDCHAR
STARTCHAR Uogonek
ENCODING 370
SWIDTH 637 0
DWIDTH 15 0
BBX 14 25 1 -7
BITMAP
5AA05400
BFE0FFD0
3FE1FF80
3FE1FF40
3FE1FF40
2FF1FF00
2FF1FE00
1FF1FE00
1FE1FD00
1FE1FC00
0FD2FC00
1FE2FC00
0FE2F800
0FF2F800
0BF3F800
0BFFF400
07FFF000
02EFD000
008FC000
000F8000
000F4000
000FC000
000BFF00
0007FF00
0001BF00
ENDCHAR
STARTCHAR uogonek
ENCODING 371
SWIDTH 662 0
DWIDTH 16 0
BBX 17 25 0 -7
BITMAP
05A9050000
6FFE0FFD00
0FFD0FFF40
0FFD0FFD00
0BFE0FFD00
07FE0FF800
07FE0FF400
03FE0FF400
03FE0FF000
02FE0FF000
02FE1FE000
02FE1FE000
02FF1FE000
01FF2FD000
00BF2FD000
00BFFFC000
007FFF8000
001FFA4000
0007C00000
0007C00000
0007C00000
0007E00000
0003FF8000
0002FF8000
0000BF8000
ENDCHAR
STARTCHAR Wcircumflex
ENCODING 372
SWIDTH 777 0
DWIDTH 19 0
BBX 19 28 0 0
BITMAP
0007FD0000
000BFF0000
000FFF8000
002FFFC000
003F5FE000
007D07F000
00F801F400
00A000A000
0000000000
0000000000
0054B82900
1BF8B83FE4
6FF8FCBFD0
0BF9FDBF40
03FDFDFE00
01FEFFFC00
01FFFFF800
01FFFFF400
00BFFFF000
003FFFF000
002FFFF000
002FFFE000
001FEFD000
000FDFD000
000FDFC000
000B8F8000
00078F4000
00019B0000
ENDCHAR
STARTCHAR wcircumflex
ENCODING 373
SWIDTH 704 0
DWIDTH 17 0
BBX 17 27 0 0
BITMAP
000FF80000
001FFD0000
002FFF0000
007FFF4000
00BE2FC000
00F80FD000
02F007E000
01C001D000
0000000000
0051914000
6FF1E1FE40
1FF2F1FE00
07F6F6FD00
07F7FAF800
02FBFFF400
02FFFFF000
01FFFFE000
00FFFFD000
007FFFD000
003FFFD000
003FFFC000
002FEFC000
001FEFC000
000F9F8000
000F9F4000
000B9F4000
00055B4000
ENDCHAR
STARTCHAR Ycircumflex
ENCODING 374
SWIDTH 688 0
DWIDTH 17 0
BBX 17 29 0 -1
BITMAP
000FF80000
002FFC0000
003FFE0000
007FFF4000
00FD3F8000
01F81FD000
02E007E000
0280018000
0000000000
0000000000
16A8094000
6FFD0FFD40
07FF0FFE40
00FF6FF400
007FFFD000
001FFF8000
000FFF4000
0007FF0000
0007FF0000
0002FE0000
0001FE0000
0000FE0000
0000FE0000
0000BE0000
0000BD0000
0000BD0000
00007D0000
00007D0000
0000640000
ENDCHAR
STARTCHAR ycircumflex
ENCODING 375
SWIDTH 604 0
DWIDTH 15 0
BBX 13 30 1 -2
BITMAP
01FF4000
02FFC000
07FFD000
0BFFF000
0FD7F400
2F41FC00
3E00BD00
28002800
00000000
00000000
56409000
BFD1FE40
1FE2FF00
07F7FC00
03FBF400
01FFE000
00FFD000
00BFC000
00BFC000
007FC000
003F8000
003F8000
002F8000
002F8000
002F8000
002F8000
002F4000
002F0000
002E0000
00100000
ENDCHAR
STARTCHAR Ydieresis
ENCODING 376
SWIDTH 688 0
DWIDTH 17 0
BBX 17 26 0 -1
BITMAP
02A91BF400
07FD2FF400
07FD2FF400
07FD2FF400
07FD2FF400
02A91A6400
0000000000
16A8094000
6FFD0FFD40
07FF0FFE40
00FF6FF400
007FFFD000
001FFF8000
000FFF4000
0007FF0000
0007FF0000
0002FE0000
0001FE0000
0000FE0000
0000FE0000
0000BE0000
0000BD0000
0000BD0000
00007D0000
00007D0000
0000640000
ENDCHAR
STARTCHAR Zacute
ENCODING 377
SWIDTH 695 0
DWIDTH 17 0
BBX 16 26 1 -1
BITMAP
00000070
000001F4
00000BFD
00006FFE
0000BF90
00005000
00000000
16AAA500
FFFFFFE9
BFFFFFF8
7FFFFFF4
2FFFFFE0
1FFFFFD0
0FFFFF80
0FFFFF40
0F4BFE00
040FF400
002FD000
003F8000
007F0000
00BE0000
00FD4000
02FFF400
03FFF000
03EFE000
00418000
ENDCHAR
STARTCHAR zacute
ENCODING 378
SWIDTH 622 0
DWIDTH 15 0
BBX 15 27 1 -2
BITMAP
00000280
00000BC0
00003FE0
0001FFF4
0003F900
00024000
00000000
1AAAA500
FFFFFFC0
BFFFFF80
7FFFFF40
2FFFFE00
1FFFFE00
0FFFFD00
0FFFFC00
0B9FF400
041FD000
002F8000
003F4000
007E0000
007D0000
00BC0000
00FFF000
01FFE000
02FFE000
0089A000
00001000
ENDCHAR
STARTCHAR Zdotaccent
ENCODING 379
SWIDTH 695 0
DWIDTH 17 0
BBX 16 28 1 -1
BITMAP
006AE400
007FF800
007FF800
007FF800
003FFC00
003FF800
003FF800
00251000
00000000
16AAA500
FFFFFFE9
BFFFFFF8
7FFFFFF4
2FFFFFE0
1FFFFFD0
0FFFFF80
0FFFFF40
0F4BFE00
040FF400
002FD000
003F8000
007F0000
00BE0000
00FD4000
02FFF400
03FFF000
03EFE000
00418000
ENDCHAR
STARTCHAR zdotaccent
ENCODING 380
SWIDTH 622 0
DWIDTH 15 0
BBX 13 29 1 -2
BITMAP
01AB9000
02FFD000
02FFD000
02FFD000
01FFE000
01FFD000
01FFD000
01504000
00000000
1AAAA500
FFFFFFC0
BFFFFF80
7FFFFF40
2FFFFE00
1FFFFE00
0FFFFD00
0FFFFC00
0B9FF400
041FD000
002F8000
003F4000
007E0000
007D0000
00BC0000
00FFF000
01FFE000
02FFE000
0089A000
00001000
ENDCHAR
STARTCHAR Zcaron
ENCODING 381
SWIDTH 693 0
DWIDTH 17 0
BBX 16 31 1 -1
BITMAP
02C00B00
07E01F80
02F43F40
01FCBF00
00FEFD00
00BFFC00
007FF400
002FF000
00000000
00000000
00000000
00000000
16AAA500
FFFFFFE9
BFFFFFF8
7FFFFFF4
2FFFFFE0
1FFFFFD0
0FFFFF80
0FFFFF40
0F4BFE00
040FF400
002FD000
003F8000
007F0000
00BE0000
00FD4000
02FFF400
03FFF000
03FFE000
00418000
ENDCHAR
STARTCHAR zcaron
ENCODING 382
SWIDTH 621 0
DWIDTH 15 0
BBX 13 33 1 -2
BITMAP
01001000
1F003800
1F80BE00
0FD1FD00
0BE3F800
07FFF400
02FFE000
01FFD000
00FF8000
00000000
00000000
00000000
00000000
1AAAA500
FFFFFFC0
BFFFFF80
7FFFFF40
2FFFFE00
1FFFFD00
0FFFFD00
0FFFFC00
0B9FF400
041FD000
002F8000
003F4000
007E0000
007D0000
00BC0000
00FFF000
01FFE000
02FFE000
0089A000
00001000
ENDCHAR
STARTCHAR DZ
ENCODING 497
SWIDTH 194 0
DWIDTH 5 0
BBX 1 1 0 0
BITMAP
00
ENDCHAR
STARTCHAR Dz
ENCODING 498
SWIDTH 194 0
DWIDTH 5 0
BBX 1 1 0 0
BITMAP
00
ENDCHAR
STARTCHAR dotlessj
ENCODING 567
SWIDTH 458 0
DWIDTH 11 0
BBX 11 19 -1 -1
BITMAP
00AA40
00BFF8
007FF8
003FF4
002FF0
002FF0
002FF0
002FF0
002FE0
002FE0
001FE0
001FD0
2B1FD0
7F1FD0
3F5FD0
3FFFC0
1FFF80
0BFF40
005940
ENDCHAR
STARTCHAR circumflex
ENCODING 710
SWIDTH 528 0
DWIDTH 13 0
BBX 11 8 1 17
BITMAP
03FE00
0BFF00
0FFF80
1FFFD0
3F4FE0
7E07F4
B801F8
A00060
ENDCHAR
STARTCHAR caron
ENCODING 711
SWIDTH 486 0
DWIDTH 12 0
BBX 11 9 0 17
BITMAP
040010
7D00B4
7F01FC
2F83F8
1FDBF0
0FFFE0
07FFC0
03FF80
02EF00
ENDCHAR
STARTCHAR breve
ENCODING 728
SWIDTH 464 0
DWIDTH 11 0
BBX 9 7 1 -2
BITMAP
FC0540
BC0FC0
7E5F80
7FFF40
2BFF00
023A00
001100
ENDCHAR
STARTCHAR dotaccent
ENCODING 729
SWIDTH 388 0
DWIDTH 9 0
BBX 7 8 1 5
BITMAP
6AE4
7FF8
7FF8
7FF8
3FFC
3FF8
3FF8
2510
ENDCHAR
STARTCHAR ring
ENCODING 730
SWIDTH 370 0
DWIDTH 9 0
BBX 7 7 1 7
BITMAP
1A80
7FF0
B5B8
B038
7474
7FE0
1B80
ENDCHAR
STARTCHAR ogonek
ENCODING 731
SWIDTH 360 0
DWIDTH 9 0
BBX 7 9 1 0
BITMAP
1400
7D00
7C00
B800
BC00
BD00
7FF8
3FF4
0BF4
ENDCHAR
STARTCHAR tilde
ENCODING 732
SWIDTH 535 0
DWIDTH 13 0
BBX 11 6 1 -2
BITMAP
000100
2C0BD0
FEBFF4
BFFFFC
2FFAF4
0A8040
ENDCHAR
STARTCHAR hungarumlaut
ENCODING 733
SWIDTH 554 0
DWIDTH 13 0
BBX 12 8 1 17
BITMAP
060090
0B81E9
0FE2FD
2FC3F8
3F47E0
7D0F80
F41E00
901800
ENDCHAR
STARTCHAR dotaccentcmb
ENCODING 775
SWIDTH 396 0
DWIDTH 10 0
BBX 7 8 1 9
BITMAP
0554
BFFC
7FF8
7FF8
3FFC
3FFC
3FFC
3A64
ENDCHAR
STARTCHAR uni030F
ENCODING 783
SWIDTH 549 0
DWIDTH 13 0
BBX 12 8 0 17
BITMAP
024050
6B82F0
7FC7F4
1FD2F8
07E0FC
01F03E
00B41F
002406
ENDCHAR
STARTCHAR uni0311
ENCODING 785
SWIDTH 490 0
DWIDTH 12 0
BBX 10 6 1 9
BITMAP
06E800
2FFF00
3FFF80
7F5FC0
7D0BD0
BD0690
ENDCHAR
STARTCHAR uni0326
ENCODING 806
SWIDTH 360 0
DWIDTH 9 0
BBX 7 11 1 -2
BITMAP
0400
7FF4
7FF4
7FF4
7FF4
7FF4
6AF4
01F4
01F0
02F0
02E0
ENDCHAR
STARTCHAR endash
ENCODING 8211
SWIDTH 478 0
DWIDTH 11 0
BBX 9 5 1 7
BITMAP
695540
BFFFC0
BFFF80
BFFF80
6FBF80
ENDCHAR
STARTCHAR emdash
ENCODING 8212
SWIDTH 567 0
DWIDTH 14 0
BBX 11 5 1 7
BITMAP
695654
BFFFFC
BFFFF8
BFFFF8
6FAFF8
ENDCHAR
STARTCHAR quoteleft
ENCODING 8216
SWIDTH 373 0
DWIDTH 9 0
BBX 7 12 1 6
BITMAP
2900
3D00
7D00
7C00
7C00
BFF8
BFF8
BFF8
BFF8
BFF8
BFF8
7BF4
ENDCHAR
STARTCHAR quoteright
ENCODING 8217
SWIDTH 369 0
DWIDTH 9 0
BBX 7 12 1 6
BITMAP
6950
BFF4
BFF4
BFF4
FFF4
FFF4
FFF4
56F4
01F4
01F0
02F0
02E0
ENDCHAR
STARTCHAR quotesinglbase
ENCODING 8218
SWIDTH 369 0
DWIDTH 9 0
BBX 7 12 1 6
BITMAP
6950
BFF4
BFF4
BFF4
FFF4
FFF4
FFF4
56F4
01F4
01F0
02F0
02E0
ENDCHAR
STARTCHAR quotedblleft
ENCODING 8220
SWIDTH 687 0
DWIDTH 16 0
BBX 15 12 1 6
BITMAP
29006800
3D007C00
7D00B800
7C00B800
7C00F800
BFF8FFF4
BFF8FFF4
BFF8FFF4
BFF8FFF0
BFF8FFF0
BFF8FFF0
7BF4ABF0
ENDCHAR
STARTCHAR quotedblright
ENCODING 8221
SWIDTH 677 0
DWIDTH 16 0
BBX 14 12 1 6
BITMAP
6A906550
BFF0FFE0
BFF0FFE0
BFF0FFE0
FFF0FFE0
FFF0FFE0
FFF1FFE0
6AF05BE0
01E003E0
01E003D0
02E007D0
02D007C0
ENDCHAR
STARTCHAR quotedblbase
ENCODING 8222
SWIDTH 697 0
DWIDTH 17 0
BBX 15 13 1 -8
BITMAP
55101510
BFF4BFF4
BFF4BFF4
BFF4BFF8
BFF4BFF8
FFF4BFF4
FFF4BFF4
AAF46AF4
01F400F4
01F001F4
02F001F0
02E002F0
00400050
ENDCHAR
STARTCHAR ellipsis
ENCODING 8230
SWIDTH 1462 0
DWIDTH 35 0
BBX 33 8 1 1
BITMAP
055000015400001540
BFF4001FFD0007FF80
7FF4000FFD0003FF80
7FF4000FFD0003FF80
7FF4000FFD0002FFC0
7FF4000FFD0002FFC0
3FF4000FFD0002FF80
3A60000A990002A640
ENDCHAR
STARTCHAR guilsinglleft
ENCODING 8249
SWIDTH 459 0
DWIDTH 11 0
BBX 11 14 0 1
BITMAP
00AAA0
01FFE0
02FF80
03FF00
0FFD00
3FF800
7FF000
2FF800
1FFC00
07FD00
02FF40
00BFD0
002FF4
000040
ENDCHAR
STARTCHAR guilsinglright
ENCODING 8250
SWIDTH 432 0
DWIDTH 10 0
BBX 9 13 1 2
BITMAP
AA9000
BFE000
3FF000
0FF800
0BFD00
02FF40
01FF80
02FF00
03FE00
0BF800
2FF400
FFE000
FF8000
ENDCHAR
STARTCHAR fraction
ENCODING 8260
SWIDTH 371 0
DWIDTH 9 0
BBX 9 19 0 -1
BITMAP
5AA940
7FFF40
2FFF00
0BFD00
07FD00
0BFD00
0BFC00
0BF800
0BF800
0BF800
07F800
07F800
03F800
03F400
02F400
02F400
02F400
02B400
002400
ENDCHAR
STARTCHAR Euro
ENCODING 8364
SWIDTH 587 0
DWIDTH 14 0
BBX 13 23 0 -5
BITMAP
001AA400
00BFFE00
02FFFF40
03FFFFC0
07FFFFC0
07FFFFC0
07FFFFC0
07FFFFC0
03FD7FC0
03FD3FC0
BFFE2A40
17FC0000
6BFE0000
6BFF2900
01FC7F00
00FDBE00
00BFFD00
00BFF800
001AB000
00045000
00094000
00050000
00014000
ENDCHAR
STARTCHAR trademark
ENCODING 8482
SWIDTH 785 0
DWIDTH 19 0
BBX 18 12 0 6
BITMAP
6AA92B8FA0
7FFF1FDFD0
3FFE0FEFD0
2FFE0FFFC0
2FFD0FFFC0
16E10BFFC0
01E00BFFC0
02E00BBBC0
02E007B780
01E0077780
01E0025580
01D0000000
ENDCHAR
STARTCHAR minus
ENCODING 8722
SWIDTH 478 0
DWIDTH 11 0
BBX 9 5 1 7
BITMAP
695540
BFFFC0
BFFF80
BFFF80
6FBF80
ENDCHAR
STARTCHAR commaaccent
ENCODING 63171
SWIDTH 360 0
DWIDTH 9 0
BBX 7 13 1 -4
BITMAP
1000
BFF4
BFF4
BFF4
BFF4
FFF4
FFF4
ABF4
00F4
01F0
02F0
02E0
0150
ENDCHAR
STARTCHAR .notdef
ENCODING -1
SWIDTH 365 0
DWIDTH 9 0
BBX 8 16 0 0
BITMAP
7AAD
6009
6009
6009
6009
6009
6009
6009
6009
6009
6009
6009
6009
6009
6009
7AAD
ENDCHAR
STARTCHAR .null
ENCODING -1
SWIDTH 0 0
DWIDTH 0 0
BBX 1 1 0 0
BITMAP
00
ENDCHAR
STARTCHAR nonmarkingreturn
ENCODING -1
SWIDTH 333 0
DWIDTH 8 0
BBX 1 1 0 0
BITMAP
00
ENDCHAR
ENDFONT
